<svg width="119" height="119" viewBox="0 0 119 119" fill="none" xmlns="http://www.w3.org/2000/svg">
<path d="M22.3125 113.422C29.5008 113.422 35.3281 107.595 35.3281 100.406C35.3281 93.2179 29.5008 87.3906 22.3125 87.3906C15.1242 87.3906 9.29688 93.2179 9.29688 100.406C9.29688 107.595 15.1242 113.422 22.3125 113.422Z" fill="#575757"/>
<path d="M16.9668 112.273C19.3756 113.358 22.0577 113.685 24.6566 113.209C27.2555 112.734 29.6481 111.478 31.5163 109.61C33.3846 107.742 34.6399 105.349 35.1155 102.75C35.5911 100.151 35.2645 97.4693 34.179 95.0605C32.9252 99.1125 30.7025 102.798 27.7032 105.797C24.704 108.796 21.0188 111.019 16.9668 112.273V112.273Z" fill="#4A4A4A"/>
<path d="M22.3125 104.125C24.3663 104.125 26.0312 102.46 26.0312 100.406C26.0312 98.3524 24.3663 96.6875 22.3125 96.6875C20.2587 96.6875 18.5938 98.3524 18.5938 100.406C18.5938 102.46 20.2587 104.125 22.3125 104.125Z" fill="#6E6E6E"/>
<path d="M44.625 39.0469V46.4844H40.9062C39.92 46.4844 38.9741 46.0926 38.2767 45.3952C37.5793 44.6978 37.1875 43.7519 37.1875 42.7656C37.1875 41.7794 37.5793 40.8335 38.2767 40.1361C38.9741 39.4387 39.92 39.0469 40.9062 39.0469H44.625Z" fill="#FDA5A3"/>
<path d="M72.5156 39.0469H44.625V46.4844H72.5156V39.0469Z" fill="#FFCF54"/>
<path d="M41.3249 35.3281H30.4426C29.0661 35.3281 27.7073 35.6377 26.4666 36.234C25.226 36.8303 24.1354 37.698 23.2755 38.7728V38.7728C21.9539 40.4249 21.2435 42.4827 21.2647 44.5983C21.2858 46.7138 22.0371 48.7571 23.3915 50.3824L26.4927 54.1037C26.9165 54.6123 27.1969 55.2249 27.3048 55.8781C27.4128 56.5312 27.3444 57.2014 27.1068 57.8194L18.5938 79.9531H31.6094L44.8528 40.2228C45.0391 39.6638 45.09 39.0686 45.0011 38.4861C44.9122 37.9036 44.6862 37.3505 44.3417 36.8725C43.9972 36.3945 43.544 36.0052 43.0195 35.7367C42.495 35.4681 41.9141 35.3281 41.3249 35.3281V35.3281Z" fill="#5CA4CC"/>
<path d="M55.7812 83.6719H52.9922C51.7593 83.6719 50.577 84.1616 49.7052 85.0334C48.8335 85.9051 48.3438 87.0875 48.3438 88.3203C48.3438 89.5532 48.8335 90.7355 49.7052 91.6073C50.577 92.479 51.7593 92.9687 52.9922 92.9688H60.4297C61.6625 92.9688 62.8449 92.479 63.7166 91.6073C64.5884 90.7355 65.0781 89.5532 65.0781 88.3203V76.2344C65.0781 74.755 65.6658 73.3361 66.7119 72.29C67.758 71.2439 69.1768 70.6562 70.6562 70.6562H79.9531C80.9394 70.6562 81.8853 70.2645 82.5827 69.5671C83.2801 68.8697 83.6719 67.9238 83.6719 66.9375V55.7812H68.7969V59.5C68.7969 60.4863 68.4051 61.4322 67.7077 62.1296C67.0103 62.827 66.0644 63.2188 65.0781 63.2188H63.2188C61.2462 63.2188 59.3544 64.0023 57.9596 65.3971C56.5648 66.7919 55.7812 68.6837 55.7812 70.6562V83.6719Z" fill="#575757"/>
<path d="M81.4935 35.0091L81.0424 34.5579C80.697 34.2126 80.4231 33.8027 80.2362 33.3515C80.0493 32.9003 79.9531 32.4167 79.9531 31.9284V16.7344H61.3594V22.8552C61.3594 24.3416 61.8048 25.794 62.6381 27.0249C63.4714 28.2557 64.6545 29.2087 66.0346 29.7607L68.3186 30.6743C69.0087 30.9504 69.6002 31.4268 70.0169 32.0423C70.4335 32.6577 70.6562 33.3839 70.6562 34.1271V37.1875L68.7969 39.0469V55.7812H83.6719V40.2682C83.6719 38.2957 82.8883 36.4039 81.4935 35.0091V35.0091Z" fill="#FDA5A3"/>
<path d="M77.7921 16.7344L63.8203 28.3775C64.4707 28.9658 65.2203 29.4341 66.0342 29.7607L67.3417 30.2837L79.9528 19.7745V16.7344H77.7921Z" fill="#46C89D"/>
<path d="M81.4935 35.0091L81.0422 34.5577C80.3449 33.8604 79.9531 32.9146 79.9531 31.9284V31.6094H77.7747C77.2864 31.6094 76.8028 31.7056 76.3516 31.8924C75.9004 32.0793 75.4905 32.3533 75.1452 32.6986L68.7969 39.0469V55.7812H83.6719V40.2685C83.6719 38.2959 82.8883 36.404 81.4935 35.0091V35.0091Z" fill="#FFCF54"/>
<path d="M109.703 37.1875H87.3906C85.3368 37.1875 83.6719 38.8524 83.6719 40.9062V66.9375C83.6719 68.9913 85.3368 70.6562 87.3906 70.6562H109.703C111.757 70.6562 113.422 68.9913 113.422 66.9375V40.9062C113.422 38.8524 111.757 37.1875 109.703 37.1875Z" fill="#00B378"/>
<path d="M83.6719 44.625H113.422V40.9062C113.422 39.92 113.03 38.9741 112.333 38.2767C111.635 37.5793 110.689 37.1875 109.703 37.1875H87.3906C86.4044 37.1875 85.4585 37.5793 84.7611 38.2767C84.0637 38.9741 83.6719 39.92 83.6719 40.9062V44.625Z" fill="#00A16C"/>
<path d="M107.844 26.0312H92.9688V29.75H107.844V26.0312Z" fill="#CBE2EF"/>
<path d="M111.562 18.5938H96.6875V22.3125H111.562V18.5938Z" fill="#CBE2EF"/>
<path d="M115.281 11.1562H104.125V14.875H115.281V11.1562Z" fill="#CBE2EF"/>
<path d="M65.0781 83.6719H52.9922C51.7593 83.6719 50.577 84.1616 49.7052 85.0334C48.8335 85.9051 48.3438 87.0875 48.3438 88.3203C48.3438 89.5532 48.8335 90.7355 49.7052 91.6073C50.577 92.479 51.7593 92.9688 52.9922 92.9688H60.4297C61.6625 92.9688 62.8449 92.479 63.7166 91.6073C64.5884 90.7355 65.0781 89.5532 65.0781 88.3203V83.6719Z" fill="#FFCF54"/>
<path d="M107.844 70.6563H70.6562C69.9237 70.6562 69.1984 70.8005 68.5216 71.0809C67.8448 71.3612 67.2299 71.7721 66.7119 72.29C66.1939 72.808 65.7831 73.4229 65.5027 74.0997C65.2224 74.7765 65.0781 75.5018 65.0781 76.2344V78.0938H113.422V76.2344C113.422 75.5018 113.278 74.7765 112.997 74.0997C112.717 73.4229 112.306 72.808 111.788 72.29C111.27 71.7721 110.655 71.3612 109.978 71.0809C109.302 70.8005 108.576 70.6562 107.844 70.6563V70.6563Z" fill="#338DBF"/>
<path d="M100.406 50.2031H96.6875V55.7812H100.406V50.2031Z" fill="#59CEA7"/>
<path d="M63.5378 44.306C62.8471 44.9966 62.0272 45.5444 61.1249 45.9182C60.2225 46.292 59.2554 46.4844 58.2787 46.4844H39.0469C38.0606 46.4844 37.1147 46.8762 36.4173 47.5736C35.7199 48.271 35.3281 49.2168 35.3281 50.2031C35.3281 51.1894 35.7199 52.1353 36.4173 52.8327C37.1147 53.5301 38.0606 53.9219 39.0469 53.9219H61.9974C62.9741 53.9219 63.9413 53.7295 64.8436 53.3557C65.746 52.9819 66.5659 52.4341 67.2565 51.7435L78.7979 40.2021C79.1641 39.8359 79.4547 39.401 79.6529 38.9225C79.8511 38.4439 79.9531 37.931 79.9531 37.4131V37.413C79.9531 33.899 75.7045 32.1392 73.2197 34.624L63.5378 44.306Z" fill="#FFCF54"/>
<path d="M42.7656 46.4844V53.9219H39.0469C38.0606 53.9219 37.1147 53.5301 36.4173 52.8327C35.7199 52.1353 35.3281 51.1894 35.3281 50.2031C35.3281 49.2169 35.7199 48.271 36.4173 47.5736C37.1147 46.8762 38.0606 46.4844 39.0469 46.4844H42.7656Z" fill="#FDA5A3"/>
<path d="M105.984 63.2188V61.3594C105.984 59.3868 105.201 57.4951 103.806 56.1003C102.411 54.7055 100.519 53.9219 98.5469 53.9219C96.5743 53.9219 94.6826 54.7055 93.2878 56.1003C91.893 57.4951 91.1094 59.3868 91.1094 61.3594V63.2188H105.984Z" fill="#BDECDC"/>
<path d="M30.4426 35.3281C29.0661 35.3281 27.7073 35.6377 26.4666 36.234C25.226 36.8303 24.1354 37.698 23.2755 38.7728V38.7728C22.0243 40.3372 21.3193 42.2679 21.2681 44.2704C21.2169 46.2729 21.8223 48.2372 22.9919 49.8634L26.9945 47.8621C27.8681 47.4253 28.6471 46.8207 29.287 46.0829C29.927 45.345 30.4153 44.4883 30.7242 43.5618L33.4687 35.3281H30.4426Z" fill="#CBE2EF"/>
<path d="M24.7917 63.8386L18.5938 79.9531H31.6094L33.9336 72.9805L24.7917 63.8386Z" fill="#338DBF"/>
<path d="M65.0778 78.0938V88.3203C65.0778 89.5532 64.588 90.7355 63.7163 91.6073C62.8445 92.479 61.6622 92.9688 60.4293 92.9688H44.679C44.0871 92.9687 43.5037 92.8274 42.9774 92.5566C42.451 92.2857 41.997 91.8932 41.6529 91.4115L34.6649 81.6282C34.2948 81.1101 33.8064 80.6878 33.2402 80.3965C32.6741 80.1051 32.0466 79.9531 31.4098 79.9531H17.7963C17.1002 79.9531 16.4161 80.1348 15.8117 80.4802L7.09132 85.4632C6.19626 85.9638 5.52327 86.784 5.20704 87.7596C4.89081 88.7351 4.95468 89.7941 5.38585 90.7246C5.6344 91.2397 5.99052 91.6956 6.43019 92.0614C6.86987 92.4272 7.38288 92.6944 7.93461 92.8451C8.48635 92.9958 9.06399 93.0264 9.62856 92.9349C10.1931 92.8434 10.7315 92.6319 11.2074 92.3146L14.8675 89.8746C15.4784 89.4673 16.1961 89.25 16.9303 89.25H27.3047C27.8966 89.25 28.48 89.3913 29.0063 89.6622C29.5326 89.933 29.9867 90.3256 30.3307 90.8073L36.0748 98.849C36.4188 99.3306 36.8729 99.7232 37.3992 99.9941C37.9256 100.265 38.5089 100.406 39.1009 100.406H87.3903C87.3903 99.42 87.7821 98.4741 88.4795 97.7767C89.1769 97.0793 90.1227 96.6875 91.109 96.6875C92.0953 96.6875 93.0412 97.0793 93.7386 97.7767C94.436 98.4741 94.8278 99.42 94.8278 100.406H104.125V91.167C104.125 90.0522 104.459 88.963 105.084 88.0399C105.709 87.1167 106.596 86.402 107.631 85.988L109.915 85.0745C110.95 84.6605 111.837 83.9458 112.462 83.0226C113.087 82.0994 113.422 81.0102 113.422 79.8953V78.0938H65.0778Z" fill="#5CA4CC"/>
<path d="M91.1094 113.422C98.2977 113.422 104.125 107.595 104.125 100.406C104.125 93.2179 98.2977 87.3906 91.1094 87.3906C83.921 87.3906 78.0938 93.2179 78.0938 100.406C78.0938 107.595 83.921 113.422 91.1094 113.422Z" fill="#575757"/>
<path d="M91.1094 104.125C93.1632 104.125 94.8281 102.46 94.8281 100.406C94.8281 98.3524 93.1632 96.6875 91.1094 96.6875C89.0556 96.6875 87.3906 98.3524 87.3906 100.406C87.3906 102.46 89.0556 104.125 91.1094 104.125Z" fill="#6E6E6E"/>
<path d="M83.6719 40.9062V66.9375C83.6719 67.9237 84.0637 68.8696 84.7611 69.567C85.4585 70.2644 86.4044 70.6562 87.3906 70.6562H109.703C110.026 70.6551 110.348 70.6118 110.66 70.5274C103.28 69.8389 96.4228 66.4205 91.4311 60.9417C86.4393 55.4628 83.6724 48.3181 83.6719 40.9062Z" fill="#009966"/>
<path d="M68.7969 70.6562H79.9531C80.9394 70.6562 81.8853 70.2644 82.5827 69.567C83.2801 68.8696 83.6719 67.9238 83.6719 66.9375V55.7812C83.6719 59.7263 82.1047 63.5099 79.3151 66.2995C76.5255 69.0891 72.742 70.6562 68.7969 70.6562Z" fill="#4A4A4A"/>
<path d="M68.7969 55.7812H83.6719V40.9062C83.6719 44.8513 82.1047 48.6349 79.3151 51.4245C76.5255 54.2141 72.742 55.7812 68.7969 55.7812Z" fill="#005686"/>
<path d="M55.7812 92.9688H60.4297C61.0401 92.9688 61.6446 92.8485 62.2086 92.6149C62.7725 92.3813 63.285 92.0389 63.7166 91.6073C64.1483 91.1756 64.4907 90.6632 64.7243 90.0992C64.9579 89.5352 65.0781 88.9308 65.0781 88.3203V83.6719C65.0781 86.1376 64.0986 88.5023 62.3551 90.2458C60.6116 91.9893 58.2469 92.9687 55.7812 92.9688V92.9688Z" fill="#005686"/>
<path d="M85.7637 112.273C88.1724 113.358 90.8546 113.685 93.4535 113.209C96.0524 112.734 98.445 111.478 100.313 109.61C102.181 107.742 103.437 105.349 103.912 102.75C104.388 100.151 104.061 97.4693 102.976 95.0605C101.722 99.1125 99.4993 102.798 96.5001 105.797C93.5009 108.796 89.8157 111.019 85.7637 112.273V112.273Z" fill="#4A4A4A"/>
<path d="M107.844 70.6563H83.6719C90.9191 70.6462 97.9188 73.2922 103.347 78.0938H113.422V76.2344C113.422 75.5019 113.278 74.7765 112.997 74.0997C112.717 73.423 112.306 72.808 111.788 72.2901C111.27 71.7721 110.655 71.3612 109.978 71.0809C109.302 70.8006 108.576 70.6563 107.844 70.6563V70.6563Z" fill="#2C78A3"/>
<path d="M109.313 85.3153L109.915 85.0745C110.95 84.6605 111.838 83.9458 112.463 83.0226C113.088 82.0994 113.422 81.0102 113.422 79.8953V78.0938H103.347C105.703 80.1724 107.716 82.6095 109.313 85.3153Z" fill="#4E8CAE"/>
<path d="M79.9531 31.6094V16.7344H61.3594V17.3824C65.073 18.267 68.5249 20.0168 71.4336 22.4893C74.3422 24.9617 76.6252 28.0867 78.0964 31.6094H79.9531Z" fill="#D78D8B"/>
<path d="M18.616 79.8953L18.5938 79.9532H31.6094L33.6658 73.7841C29.44 77.3917 24.1606 79.5355 18.616 79.8953V79.8953Z" fill="#2C78A3"/>
<path d="M91.146 60.6226C91.1221 60.865 91.1094 61.1107 91.1094 61.3594V63.2188H93.748C92.8282 62.4075 91.9593 61.5405 91.146 60.6226Z" fill="#A1C9BC"/>
<path d="M77.7921 16.7344L71.1587 22.2623C72.1215 23.0575 73.0217 23.9257 73.8512 24.8592L79.9528 19.7745V16.7344H77.7921Z" fill="#3CAA86"/>
<path d="M83.6719 7.4375C82.4814 6.24697 80.8667 5.57813 79.183 5.57812H62.1295C60.4458 5.57814 58.8311 6.24698 57.6406 7.43751C56.4501 8.62805 55.7813 10.2428 55.7812 11.9264V16.7344H69.838C70.678 16.7344 71.5097 16.8998 72.2858 17.2213C73.0618 17.5427 73.767 18.0139 74.3609 18.6078C74.9549 19.2018 75.426 19.9069 75.7475 20.683C76.0689 21.459 76.2344 22.2908 76.2344 23.1308V23.1308C76.2344 25.6514 78.1944 27.7981 80.7134 27.8876C81.3377 27.9104 81.9601 27.8071 82.5436 27.5839C83.1271 27.3606 83.6596 27.0221 84.1093 26.5885C84.559 26.1549 84.9167 25.6351 85.161 25.0601C85.4053 24.4852 85.5312 23.8669 85.5312 23.2422V11.9264C85.5312 10.2428 84.8624 8.62805 83.6719 7.4375V7.4375Z" fill="#FFCF54"/>
<path d="M79.9531 11.1562H76.2344V14.875H79.9531V11.1562Z" fill="#5CA4CC"/>
<path d="M76.2681 23.6769C76.3844 24.7938 76.8964 25.8322 77.7117 26.6045C78.5269 27.3767 79.5915 27.8319 80.713 27.8876C81.3373 27.9104 81.9598 27.8071 82.5433 27.5839C83.1267 27.3607 83.6592 27.0221 84.1089 26.5885C84.5587 26.1549 84.9164 25.6351 85.1607 25.0601C85.405 24.4852 85.5309 23.8669 85.5309 23.2422V11.9264C85.5306 11.1806 85.3988 10.4407 85.1416 9.7406C84.0758 15.3503 80.9 20.3379 76.2681 23.6769V23.6769Z" fill="#006095"/>
<path d="M59.5 14.875H52.0625V18.5938H59.5V14.875Z" fill="#FFCF54"/>
<path d="M22.3125 94.8281C21.2093 94.8281 20.1308 95.1553 19.2135 95.7682C18.2961 96.3811 17.5812 97.2523 17.159 98.2716C16.7368 99.2909 16.6263 100.412 16.8416 101.494C17.0568 102.577 17.5881 103.57 18.3682 104.351C19.1483 105.131 20.1422 105.662 21.2243 105.877C22.3063 106.092 23.4279 105.982 24.4472 105.56C25.4664 105.138 26.3376 104.423 26.9505 103.505C27.5635 102.588 27.8906 101.509 27.8906 100.406C27.889 98.9274 27.3007 97.5095 26.255 96.4638C25.2092 95.418 23.7914 94.8298 22.3125 94.8281V94.8281ZM22.3125 102.266C21.9448 102.266 21.5853 102.157 21.2795 101.952C20.9737 101.748 20.7354 101.458 20.5947 101.118C20.4539 100.778 20.4171 100.404 20.4889 100.044C20.5606 99.6828 20.7377 99.3515 20.9977 99.0915C21.2578 98.8314 21.5891 98.6543 21.9498 98.5826C22.3104 98.5109 22.6843 98.5477 23.0241 98.6884C23.3638 98.8291 23.6542 99.0675 23.8585 99.3732C24.0628 99.679 24.1719 100.039 24.1719 100.406C24.1713 100.899 23.9752 101.372 23.6267 101.72C23.2781 102.069 22.8055 102.265 22.3125 102.266V102.266Z" fill="black"/>
<path d="M109.703 35.3281H87.3904C86.3907 35.3272 85.4094 35.5966 84.5504 36.1079C84.1028 35.2151 83.5145 34.4003 82.808 33.6945L82.357 33.2433C82.1838 33.071 82.0464 32.8661 81.9529 32.6404C81.8594 32.4147 81.8116 32.1727 81.8123 31.9284V29.6847C83.3611 29.4604 84.7773 28.6858 85.8016 27.5027C86.826 26.3196 87.39 24.8071 87.3904 23.2422V11.9264C87.3904 10.8485 87.1781 9.78124 86.7656 8.78544C86.3532 7.78965 85.7486 6.88484 84.9864 6.12269C84.2243 5.36054 83.3195 4.75597 82.3237 4.3435C81.3279 3.93104 80.2606 3.71874 79.1828 3.71875H62.1293C61.0514 3.71874 59.9841 3.93103 58.9883 4.3435C57.9925 4.75597 57.0877 5.36054 56.3256 6.12269C55.5634 6.88484 54.9589 7.78964 54.5464 8.78544C54.1339 9.78124 53.9216 10.8485 53.9216 11.9264V14.875H52.0623V18.5938H59.4998V22.8552C59.4937 24.7146 60.0481 26.5328 61.0905 28.0725C62.133 29.6123 63.6152 30.8022 65.3439 31.4872L67.628 32.4007C67.9737 32.5377 68.2701 32.7757 68.4785 33.0837C68.687 33.3916 68.7979 33.7552 68.7966 34.1271V36.4174L68.0265 37.1875H46.5874C46.4086 36.6877 46.1603 36.2157 45.8497 35.7853C45.3364 35.0647 44.6573 34.4781 43.8698 34.075C43.0822 33.6718 42.2093 33.4639 41.3246 33.4688H30.4423C28.3444 33.4688 26.2899 34.0667 24.5196 35.1924C22.7493 36.3181 21.3365 37.925 20.4467 39.8249C19.5568 41.7247 19.2269 43.8388 19.4954 45.9195C19.764 48.0001 20.6199 49.9611 21.963 51.5728L25.0639 55.2939C25.2757 55.5483 25.4159 55.8546 25.4699 56.1812C25.5238 56.5078 25.4897 56.8429 25.371 57.1519L17.3076 78.1168C16.4566 78.1875 15.6313 78.4431 14.8893 78.8658L6.08155 83.8988C4.99223 84.5187 4.13054 85.4717 3.62321 86.6177C3.11588 87.7638 2.98969 89.0424 3.26318 90.2655C3.53667 91.4886 4.19542 92.5917 5.14255 93.4125C6.08968 94.2333 7.2752 94.7286 8.52477 94.8254C7.72502 96.8011 7.35922 98.9256 7.45213 101.055C7.54505 103.184 8.09451 105.269 9.0633 107.168C10.0321 109.066 11.3976 110.734 13.0673 112.059C14.737 113.384 16.6719 114.334 18.741 114.846C20.81 115.358 22.9649 115.419 25.0597 115.025C27.1545 114.632 29.1402 113.793 30.8823 112.565C32.6245 111.337 34.0824 109.749 35.1573 107.908C36.2322 106.067 36.899 104.017 37.1125 101.897C37.7472 102.14 38.4211 102.265 39.1009 102.266H76.3544C76.827 106.02 78.7125 109.452 81.6271 111.865C84.5417 114.278 88.2663 115.489 92.0426 115.252C95.8188 115.015 99.3628 113.348 101.953 110.59C104.543 107.832 105.985 104.19 105.984 100.406V91.1672C105.982 90.4234 106.203 89.6962 106.62 89.0802C107.038 88.4643 107.63 87.9883 108.322 87.7144L110.606 86.8008C111.989 86.2529 113.174 85.301 114.008 84.0692C114.842 82.8373 115.286 81.3828 115.281 79.8953V76.2344C115.282 74.3644 114.576 72.5632 113.305 71.1921C113.924 70.6695 114.421 70.0181 114.763 69.2832C115.104 68.5483 115.281 67.7478 115.281 66.9375V40.9062C115.279 39.4274 114.691 38.0095 113.645 36.9638C112.6 35.918 111.182 35.3298 109.703 35.3281V35.3281ZM59.4998 14.875H57.6404V11.9264C57.6404 10.7359 58.1134 9.59412 58.9552 8.75231C59.797 7.91049 60.9388 7.43754 62.1293 7.4375H79.1828C80.3733 7.43754 81.515 7.91049 82.3568 8.7523C83.1986 9.59412 83.6716 10.7359 83.6716 11.9264V23.2422C83.6717 23.6172 83.5961 23.9883 83.4494 24.3334C83.3027 24.6784 83.0879 24.9904 82.8179 25.2506C82.5479 25.5108 82.2282 25.7138 81.878 25.8476C81.5277 25.9814 81.154 26.0432 80.7793 26.0293C79.2983 25.9768 78.0935 24.6764 78.0935 23.1307C78.091 20.9419 77.2204 18.8435 75.6727 17.2958C74.125 15.7481 72.0266 14.8775 69.8378 14.875H59.4998ZM76.8632 28.3507L72.3679 32.8461C72.1645 31.9734 71.7527 31.1629 71.1677 30.484C70.5827 29.8051 69.842 29.2781 69.0089 28.948L68.9655 28.9307L74.4821 24.3335C74.7601 25.9179 75.6068 27.3463 76.8632 28.3507V28.3507ZM65.2633 27.1751C64.6222 26.6529 64.1058 25.994 63.752 25.2466C63.3982 24.4992 63.2159 23.6821 63.2185 22.8552V18.5938H69.8378C70.5326 18.5943 71.2181 18.7548 71.8409 19.0628C72.4638 19.3707 73.0075 19.818 73.4298 20.3698L65.2633 27.1751ZM46.5849 40.9062H64.3079L62.223 42.9911C61.7062 43.5107 61.0914 43.9227 60.4143 44.2031C59.7373 44.4836 59.0113 44.627 58.2784 44.625H45.3452L46.5849 40.9062ZM44.6248 48.3438H58.2784C59.4998 48.347 60.7097 48.1081 61.8382 47.6407C62.9666 47.1733 63.9912 46.4867 64.8525 45.6207L78.1117 32.3615C78.2108 33.688 78.7843 34.9344 79.7273 35.8726L80.1785 36.324C80.6981 36.8407 81.1101 37.4554 81.3905 38.1324C81.671 38.8095 81.8143 39.5354 81.8123 40.2682V53.9219H70.656V50.9734L75.6896 45.9397L73.0599 43.3103L65.9417 50.4286C65.4249 50.9482 64.8102 51.3602 64.1331 51.6406C63.456 51.9211 62.73 52.0645 61.9972 52.0625H44.6248V48.3438ZM47.1133 91.1094H44.679C44.3831 91.109 44.0915 91.0382 43.8284 90.9028C43.5653 90.7674 43.3383 90.5713 43.166 90.3307L36.1781 80.5472C35.6129 79.7581 34.8604 79.1219 33.9883 78.6956L41.6264 55.7812H61.9972C63.7451 55.7849 65.4582 55.2924 66.9373 54.3608V59.5C66.9367 59.993 66.7406 60.4656 66.392 60.8142C66.0435 61.1627 65.5709 61.3588 65.0779 61.3594H63.2185C60.7537 61.3622 58.3906 62.3426 56.6477 64.0855C54.9048 65.8284 53.9244 68.1914 53.9216 70.6562V81.8125H52.992C51.894 81.8121 50.8138 82.0897 49.852 82.6193C48.8901 83.1489 48.078 83.9133 47.4912 84.8413C46.9044 85.7693 46.562 86.8307 46.4959 87.9267C46.4299 89.0227 46.6422 90.1176 47.1133 91.1094V91.1094ZM39.0466 52.0625C38.5535 52.0625 38.0806 51.8666 37.7319 51.5179C37.3832 51.1692 37.1873 50.6963 37.1873 50.2031C37.1873 49.71 37.3832 49.237 37.7319 48.8883C38.0806 48.5396 38.5535 48.3438 39.0466 48.3438H40.906V52.0625H39.0466ZM52.992 85.5312H63.2185V88.3203C63.2177 89.0598 62.9236 89.7687 62.4007 90.2916C61.8778 90.8144 61.1689 91.1085 60.4295 91.1094H52.992C52.2522 91.1094 51.5428 90.8155 51.0198 90.2925C50.4967 89.7694 50.2029 89.06 50.2029 88.3203C50.2029 87.5806 50.4967 86.8712 51.0198 86.3481C51.5428 85.8251 52.2522 85.5312 52.992 85.5312ZM57.6404 81.8125V70.6562C57.6421 69.1774 58.2303 67.7595 59.2761 66.7138C60.3218 65.6681 61.7396 65.0798 63.2185 65.0781H65.0779C66.5568 65.0764 67.9746 64.4882 69.0204 63.4425C70.0661 62.3967 70.6543 60.9789 70.656 59.5V57.6406H81.8123V66.9375C81.8117 67.4305 81.6156 67.9031 81.267 68.2517C80.9185 68.6002 80.4459 68.7963 79.9529 68.7969H70.656C68.6842 68.7991 66.7937 69.5834 65.3994 70.9777C64.0051 72.3721 63.2208 74.2625 63.2185 76.2344V81.8125H57.6404ZM34.8087 37.1875H41.3246C41.6192 37.1875 41.9096 37.2575 42.1718 37.3918C42.4341 37.526 42.6607 37.7207 42.833 37.9597C43.0052 38.1987 43.1183 38.4752 43.1627 38.7665C43.2071 39.0577 43.1817 39.3553 43.0886 39.6349L41.4252 44.625H39.0466C37.6797 44.6249 36.3603 45.1267 35.339 46.0352C34.3177 46.9438 33.6655 48.1957 33.5064 49.5534C33.3473 50.911 33.6923 52.2798 34.4759 53.3999C35.2595 54.5199 36.4271 55.3132 37.757 55.6291L33.1207 69.5382L26.9606 63.3781L28.8419 58.487C29.1979 57.56 29.3003 56.5548 29.1384 55.5751C28.9765 54.5953 28.5562 53.6765 27.9208 52.9133L25.8998 50.4882L27.8259 49.5251C28.9198 48.9819 29.8951 48.2271 30.6954 47.3044C31.4956 46.3817 32.1049 45.3094 32.488 44.1497L34.8087 37.1875ZM23.7337 47.4135C23.2499 46.3008 23.0507 45.0851 23.1541 43.8761C23.2574 42.6671 23.66 41.5029 24.3256 40.4883C24.9911 39.4737 25.8988 38.6408 26.9666 38.0646C28.0344 37.4883 29.2289 37.1869 30.4423 37.1875H30.8887L28.9599 42.9738C28.7301 43.6696 28.3645 44.313 27.8844 44.8666C27.4042 45.4203 26.819 45.8732 26.1627 46.1991L23.7337 47.4135ZM25.4998 67.1765L31.8059 73.4826L30.2689 78.0938H21.3008L25.4998 67.1765ZM22.3123 111.562C20.0572 111.563 17.8548 110.88 15.9957 109.604C14.1367 108.327 12.7083 106.517 11.8989 104.412C11.0896 102.308 10.9374 100.007 11.4625 97.8136C11.9875 95.6204 13.165 93.638 14.8398 92.1278L18.6171 89.6095C18.9686 89.3748 19.3819 89.2496 19.8047 89.25H25.832C26.1726 89.2504 26.5083 89.3319 26.8113 89.4878C27.1142 89.6437 27.3756 89.8694 27.574 90.1464L33.2145 98.0435C33.568 99.6713 33.5524 101.358 33.1687 102.979C32.785 104.6 32.0431 106.114 30.9974 107.411C29.9517 108.708 28.6288 109.754 27.1258 110.472C25.6229 111.191 23.9781 111.563 22.3123 111.562V111.562ZM91.1091 111.562C88.9026 111.562 86.7457 110.908 84.9111 109.682C83.0764 108.456 81.6465 106.714 80.8021 104.676C79.9577 102.637 79.7368 100.394 80.1673 98.2298C80.5977 96.0657 81.6603 94.0778 83.2205 92.5176C84.7807 90.9574 86.7686 89.8948 88.9327 89.4644C91.0968 89.0339 93.3399 89.2548 95.3785 90.0992C97.417 90.9436 99.1594 92.3735 100.385 94.2082C101.611 96.0428 102.265 98.1998 102.265 100.406C102.262 103.364 101.086 106.2 98.9941 108.291C96.9026 110.383 94.0669 111.559 91.1091 111.562V111.562ZM109.224 83.3481L106.941 84.2617C105.647 84.7743 104.523 85.6417 103.7 86.7642C102.876 87.8867 102.387 89.2188 102.286 90.6073C100.399 88.4501 97.9285 86.8847 95.172 86.0997C92.4155 85.3146 89.4907 85.3433 86.7502 86.1824C84.0096 87.0215 81.5702 88.6351 79.7257 90.8289C77.8812 93.0226 76.7105 95.7029 76.3544 98.5469H39.1009C38.805 98.5465 38.5134 98.4757 38.2503 98.3403C37.9872 98.2049 37.7601 98.0088 37.5879 97.7682L36.6598 96.4689L36.6568 96.4572L36.6524 96.4585L30.6 87.9847C30.0572 87.2266 29.3416 86.6086 28.5124 86.1819C27.6833 85.7553 26.7644 85.5322 25.832 85.5312H19.8047C18.6477 85.5302 17.5164 85.8727 16.5544 86.5154L12.6623 89.1101L12.6504 89.0962C12.6188 89.1233 12.5895 89.1523 12.5581 89.1796L10.1762 90.7676C9.92359 90.9359 9.6381 91.0487 9.33863 91.0983C9.03916 91.1479 8.73256 91.1333 8.43917 91.0554C8.14579 90.9775 7.87233 90.838 7.63694 90.6464C7.40156 90.4547 7.20962 90.2151 7.07388 89.9436C6.82941 89.4542 6.78153 88.8897 6.94006 88.366C7.09858 87.8424 7.4515 87.3993 7.9264 87.1276L16.7341 82.0946C17.0577 81.9099 17.4238 81.8127 17.7964 81.8125H31.4101C31.7508 81.8129 32.0865 81.8944 32.3894 82.0503C32.6923 82.2062 32.9538 82.4319 33.1521 82.7089L40.14 92.4923C40.6567 93.2141 41.338 93.8025 42.1273 94.2086C42.9166 94.6148 43.7913 94.8272 44.679 94.8281H60.4295C62.1548 94.8262 63.809 94.1399 65.029 92.9199C66.2491 91.6999 66.9353 90.0457 66.9373 88.3203V79.9531H111.562C111.553 80.687 111.326 81.4016 110.91 82.0062C110.493 82.6107 109.907 83.0778 109.224 83.3481V83.3481ZM66.9373 76.2344C66.9384 75.2484 67.3306 74.3032 68.0277 73.6061C68.7249 72.9089 69.6701 72.5168 70.656 72.5156H107.844C108.829 72.5168 109.775 72.9089 110.472 73.6061C111.169 74.3032 111.561 75.2484 111.562 76.2344H66.9373ZM111.562 66.9375C111.562 67.4305 111.366 67.9031 111.017 68.2517C110.668 68.6002 110.196 68.7963 109.703 68.7969H87.3904C86.8974 68.7963 86.4248 68.6002 86.0762 68.2517C85.7277 67.9031 85.5316 67.4305 85.531 66.9375V46.4844H111.562V66.9375ZM111.562 42.7656H85.531V40.9062C85.5316 40.4133 85.7277 39.9407 86.0762 39.5921C86.4248 39.2435 86.8974 39.0474 87.3904 39.0469H109.703C110.196 39.0474 110.668 39.2435 111.017 39.5921C111.366 39.9407 111.562 40.4133 111.562 40.9062V42.7656Z" fill="black"/>
<path d="M107.844 26.0312H92.9688V29.75H107.844V26.0312Z" fill="black"/>
<path d="M111.562 18.5938H96.6875V22.3125H111.562V18.5938Z" fill="black"/>
<path d="M115.281 11.1562H104.125V14.875H115.281V11.1562Z" fill="black"/>
<path d="M91.1094 94.8281C90.0061 94.8281 88.9277 95.1553 88.0103 95.7682C87.093 96.3811 86.3781 97.2523 85.9559 98.2716C85.5337 99.2909 85.4232 100.412 85.6384 101.494C85.8537 102.577 86.3849 103.57 87.165 104.351C87.9452 105.131 88.9391 105.662 90.0211 105.877C91.1032 106.092 92.2248 105.982 93.244 105.56C94.2633 105.138 95.1345 104.423 95.7474 103.505C96.3603 102.588 96.6875 101.509 96.6875 100.406C96.6858 98.9274 96.0976 97.5095 95.0519 96.4638C94.0061 95.418 92.5883 94.8298 91.1094 94.8281V94.8281ZM91.1094 102.266C90.7416 102.266 90.3821 102.157 90.0764 101.952C89.7706 101.748 89.5323 101.458 89.3915 101.118C89.2508 100.778 89.214 100.404 89.2857 100.044C89.3575 99.6828 89.5346 99.3515 89.7946 99.0915C90.0546 98.8314 90.3859 98.6543 90.7466 98.5826C91.1073 98.5109 91.4812 98.5477 91.8209 98.6884C92.1607 98.8291 92.4511 99.0675 92.6554 99.3732C92.8597 99.679 92.9688 100.039 92.9688 100.406C92.9682 100.899 92.7721 101.372 92.4235 101.72C92.075 102.069 91.6023 102.265 91.1094 102.266V102.266Z" fill="black"/>
<path d="M79.9531 11.1562H76.2344V14.875H79.9531V11.1562Z" fill="black"/>
<path d="M107.844 61.3594C107.841 59.2171 107.1 57.1414 105.745 55.482C104.39 53.8225 102.505 52.6809 100.406 52.2496V50.2031H96.6875V52.2496C94.5891 52.6809 92.7037 53.8225 91.3489 55.482C89.9941 57.1414 89.2528 59.2171 89.25 61.3594V65.0781H107.844V61.3594ZM92.9688 61.3594C92.9687 59.88 93.5564 58.4611 94.6025 57.415C95.6486 56.3689 97.0675 55.7813 98.5469 55.7812C100.026 55.7813 101.445 56.3689 102.491 57.415C103.537 58.4611 104.125 59.88 104.125 61.3594H92.9688Z" fill="black"/>
</svg>
