<svg width="108" height="108" viewBox="0 0 108 108" fill="none" xmlns="http://www.w3.org/2000/svg">
<g filter="url(#filter0_f_154_160)">
<path d="M95.5927 46.9631C92.2669 29.257 78.743 15.7331 61.0369 12.4073C60.7008 12.3511 60.3633 12.299 60.0244 12.2498C58.3313 12.0079 56.8125 13.3368 56.8125 15.0483V51.1875H92.9517C94.6631 51.1875 95.9906 49.6687 95.7487 47.9756C95.7009 47.6367 95.6489 47.2992 95.5927 46.9631Z" fill="#CF9E76"/>
<path d="M48.1696 17.5513C27.0168 19.1545 10.5341 37.4695 11.8911 59.324C13.1076 78.9327 29.0671 94.8923 48.6744 96.1087C70.529 97.4657 88.8454 80.9816 90.4485 59.8302C90.5722 58.2018 89.2658 56.8124 87.6318 56.8124H51.1874V20.3681C51.1874 18.734 49.798 17.4276 48.1696 17.5513Z" fill="#CF9E76"/>
<path d="M51.1875 21.6562C31.7714 21.6562 16.0312 37.3964 16.0312 56.8125C16.0312 76.2286 31.7714 91.9688 51.1875 91.9688C70.6036 91.9688 86.3438 76.2286 86.3438 56.8125H51.1875V21.6562Z" fill="#DFB28B"/>
<path d="M56.8125 16.0312V51.1875H91.9688C91.9688 32.5477 75.4523 16.0312 56.8125 16.0312Z" fill="#DFB28B"/>
<path d="M87.6248 51.1875C86.4647 37.1447 76.7138 25.5445 63.6356 21.6562L61.0312 20.9939C59.6545 20.7014 58.2455 20.4947 56.8125 20.3751V51.1875H87.6248Z" fill="#FCD770"/>
<path d="M51.1875 56.8125V25.875C34.1016 25.875 20.25 39.7266 20.25 56.8125C20.25 73.8984 34.1016 87.75 51.1875 87.75C68.2734 87.75 82.125 73.8984 82.125 56.8125H51.1875Z" fill="#FCD770"/>
<path d="M41.3438 80.7188C42.8971 80.7188 44.1562 79.4596 44.1562 77.9062C44.1562 76.3529 42.8971 75.0938 41.3438 75.0938C39.7904 75.0938 38.5312 76.3529 38.5312 77.9062C38.5312 79.4596 39.7904 80.7188 41.3438 80.7188Z" fill="#FC6E51"/>
<path d="M65.25 45.5625C66.8033 45.5625 68.0625 44.3033 68.0625 42.75C68.0625 41.1967 66.8033 39.9375 65.25 39.9375C63.6967 39.9375 62.4375 41.1967 62.4375 42.75C62.4375 44.3033 63.6967 45.5625 65.25 45.5625Z" fill="#B27946"/>
<path d="M76.5 35.7188C78.0533 35.7188 79.3125 34.4596 79.3125 32.9062C79.3125 31.3529 78.0533 30.0938 76.5 30.0938C74.9467 30.0938 73.6875 31.3529 73.6875 32.9062C73.6875 34.4596 74.9467 35.7188 76.5 35.7188Z" fill="#FC6E51"/>
<path d="M45.5625 62.4375C47.1158 62.4375 48.375 61.1783 48.375 59.625C48.375 58.0717 47.1158 56.8125 45.5625 56.8125C44.0092 56.8125 42.75 58.0717 42.75 59.625C42.75 61.1783 44.0092 62.4375 45.5625 62.4375Z" fill="#B27946"/>
<path d="M70.875 70.875C72.4283 70.875 73.6875 69.6158 73.6875 68.0625C73.6875 66.5092 72.4283 65.25 70.875 65.25C69.3217 65.25 68.0625 66.5092 68.0625 68.0625C68.0625 69.6158 69.3217 70.875 70.875 70.875Z" fill="#B27946"/>
<path d="M31.5 59.625C33.0533 59.625 34.3125 58.3658 34.3125 56.8125C34.3125 55.2592 33.0533 54 31.5 54C29.9467 54 28.6875 55.2592 28.6875 56.8125C28.6875 58.3658 29.9467 59.625 31.5 59.625Z" fill="#FC6E51"/>
<path d="M87.6319 55.4062H52.5937V20.3681C52.5937 19.1939 52.0987 18.0604 51.2353 17.2603C50.3789 16.4685 49.2342 16.0621 48.0628 16.1493C25.9664 17.8228 9.10967 37.2304 10.4864 59.4112C11.7562 79.8637 28.1348 96.2437 48.5873 97.5121C49.4367 97.5642 50.2805 97.5909 51.1214 97.5909C72.2278 97.5895 90.2405 81.187 91.8506 59.9371C91.9378 58.7784 91.5328 57.6225 90.7397 56.7646C89.9395 55.9012 88.8061 55.4062 87.6319 55.4062ZM48.7603 94.7053C29.7225 93.524 14.4759 78.276 13.2947 59.2382C12.0122 38.5832 27.7045 20.5129 48.2751 18.9534C48.6562 18.9196 49.0359 19.0532 49.3242 19.3232C49.6195 19.5974 49.7812 19.9687 49.7812 20.3681V24.5039C32.5969 25.2435 18.8437 39.4495 18.8437 56.8125C18.8437 74.6479 33.352 89.1562 51.1875 89.1562C66.3159 89.1562 79.2717 78.8779 82.6917 64.1629L79.9537 63.5259C76.829 76.9598 65.0011 86.3437 51.1875 86.3437C34.9045 86.3437 21.6562 73.0954 21.6562 56.8125C21.6562 52.4657 22.6237 48.3496 24.3183 44.6287C24.4884 44.7707 24.667 44.9353 24.8808 45.1504C25.6486 45.9182 26.699 46.9687 28.6875 46.9687C30.6759 46.9687 31.7264 45.9182 32.4942 45.1504C33.1833 44.4614 33.5222 44.1562 34.3125 44.1562V41.3437C32.324 41.3437 31.2736 42.3942 30.5058 43.162C29.8167 43.851 29.4778 44.1562 28.6875 44.1562C27.8972 44.1562 27.5583 43.851 26.8692 43.162C26.5303 42.8231 26.1281 42.4307 25.6219 42.096C30.5086 33.6403 39.4523 27.8423 49.7812 27.3515V58.2187H80.6709C80.6301 59.099 80.564 59.9765 80.4459 60.8414L83.2331 61.221C83.3681 60.231 83.4398 59.2256 83.4834 58.2187H87.6319C88.0312 58.2187 88.4025 58.3804 88.6767 58.6757C88.9439 58.9654 89.0747 59.3381 89.0465 59.7248C87.4856 80.2954 69.4406 96.0032 48.7603 94.7053Z" fill="black"/>
<path d="M41.3438 73.6875C39.0178 73.6875 37.125 75.5803 37.125 77.9062C37.125 80.2322 39.0178 82.125 41.3438 82.125C43.6697 82.125 45.5625 80.2322 45.5625 77.9062C45.5625 75.5803 43.6697 73.6875 41.3438 73.6875ZM41.3438 79.3125C40.5675 79.3125 39.9375 78.6825 39.9375 77.9062C39.9375 77.13 40.5675 76.5 41.3438 76.5C42.12 76.5 42.75 77.13 42.75 77.9062C42.75 78.6825 42.12 79.3125 41.3438 79.3125Z" fill="black"/>
<path d="M61.0312 42.75C61.0312 45.0759 62.9241 46.9688 65.25 46.9688C67.5759 46.9688 69.4688 45.0759 69.4688 42.75C69.4688 40.4241 67.5759 38.5312 65.25 38.5312C62.9241 38.5312 61.0312 40.4241 61.0312 42.75ZM66.6562 42.75C66.6562 43.5262 66.0262 44.1562 65.25 44.1562C64.4738 44.1562 63.8438 43.5262 63.8438 42.75C63.8438 41.9738 64.4738 41.3438 65.25 41.3438C66.0262 41.3438 66.6562 41.9738 66.6562 42.75Z" fill="black"/>
<path d="M45.5625 55.4062C43.2366 55.4062 41.3438 57.2991 41.3438 59.625C41.3438 61.9509 43.2366 63.8438 45.5625 63.8438C47.8884 63.8438 49.7812 61.9509 49.7812 59.625C49.7812 57.2991 47.8884 55.4062 45.5625 55.4062ZM45.5625 61.0312C44.7863 61.0312 44.1562 60.4012 44.1562 59.625C44.1562 58.8488 44.7863 58.2188 45.5625 58.2188C46.3387 58.2188 46.9688 58.8488 46.9688 59.625C46.9688 60.4012 46.3387 61.0312 45.5625 61.0312Z" fill="black"/>
<path d="M70.875 63.8438C68.5491 63.8438 66.6562 65.7366 66.6562 68.0625C66.6562 70.3884 68.5491 72.2812 70.875 72.2812C73.2009 72.2812 75.0938 70.3884 75.0938 68.0625C75.0938 65.7366 73.2009 63.8438 70.875 63.8438ZM70.875 69.4688C70.0988 69.4688 69.4688 68.8387 69.4688 68.0625C69.4688 67.2863 70.0988 66.6562 70.875 66.6562C71.6512 66.6562 72.2812 67.2863 72.2812 68.0625C72.2812 68.8387 71.6512 69.4688 70.875 69.4688Z" fill="black"/>
<path d="M31.5 52.5938C29.1741 52.5938 27.2812 54.4866 27.2812 56.8125C27.2812 59.1384 29.1741 61.0312 31.5 61.0312C33.8259 61.0312 35.7188 59.1384 35.7188 56.8125C35.7188 54.4866 33.8259 52.5938 31.5 52.5938ZM31.5 58.2188C30.7238 58.2188 30.0938 57.5887 30.0938 56.8125C30.0938 56.0363 30.7238 55.4062 31.5 55.4062C32.2762 55.4062 32.9062 56.0363 32.9062 56.8125C32.9062 57.5887 32.2762 58.2188 31.5 58.2188Z" fill="black"/>
<path d="M58.2188 79.3125C57.4284 79.3125 57.0895 79.0073 56.4005 78.3183C55.6327 77.5505 54.5822 76.5 52.5938 76.5V79.3125C53.3841 79.3125 53.723 79.6177 54.412 80.3067C55.1798 81.0745 56.2303 82.125 58.2188 82.125C60.2072 82.125 61.2577 81.0745 62.0255 80.3067C62.7145 79.6177 63.0534 79.3125 63.8438 79.3125V76.5C61.8553 76.5 60.8048 77.5505 60.037 78.3183C59.348 79.0073 59.0091 79.3125 58.2188 79.3125Z" fill="black"/>
<path d="M97.1423 47.7773C97.0917 47.4244 97.0383 47.0728 96.9778 46.7241L96.9736 46.703C93.5466 28.4569 79.5431 14.4534 61.2759 11.0222C60.9272 10.9617 60.5756 10.9083 60.2241 10.8577C59.0119 10.6889 57.7927 11.0489 56.8673 11.8491C55.9392 12.6562 55.4062 13.822 55.4062 15.0483V52.5937H92.9517C94.178 52.5937 95.3438 52.0608 96.1495 51.1327C96.9525 50.2073 97.3139 48.9853 97.1423 47.7773ZM94.0261 49.2891C93.7505 49.6069 93.3694 49.7812 92.9517 49.7812H88.868C87.2058 36.0281 77.3831 24.2789 64.035 20.3077L63.2334 23.0048C67.4775 24.2662 71.3222 26.3981 74.6198 29.1502C73.2403 29.8434 72.2813 31.2581 72.2813 32.9062C72.2813 35.2322 74.1741 37.125 76.5 37.125C78.0483 37.125 79.3898 36.277 80.1239 35.0297C83.2472 39.323 85.3242 44.3756 86.0358 49.7812H58.2188V33.5039C58.3467 33.6206 58.4775 33.7472 58.6308 33.9005C59.3986 34.6683 60.4491 35.7187 62.4375 35.7187C64.4259 35.7187 65.4764 34.6683 66.2442 33.9005C66.9333 33.2114 67.2722 32.9062 68.0625 32.9062V30.0937C66.0741 30.0937 65.0236 31.1442 64.2558 31.912C63.5667 32.6011 63.2278 32.9062 62.4375 32.9062C61.6472 32.9062 61.3083 32.6011 60.6192 31.912C60.0581 31.3509 59.3395 30.6408 58.2188 30.2991V21.9516C59.0667 22.0612 59.9105 22.1934 60.7388 22.3692L61.3238 19.6172C60.3042 19.402 59.2636 19.2473 58.2188 19.1222V15.0483C58.2188 14.6306 58.3931 14.2509 58.7109 13.9739C59.0245 13.7025 59.4239 13.5858 59.8275 13.6434C60.1523 13.6884 60.4772 13.7391 60.7781 13.7897C77.8739 17.0002 90.9942 30.1177 94.2075 47.212C94.2623 47.5312 94.3116 47.8505 94.3566 48.1753C94.4142 48.5803 94.2975 48.9769 94.0261 49.2891ZM76.5 31.5C77.2763 31.5 77.9063 32.13 77.9063 32.9062C77.9063 33.6825 77.2763 34.3125 76.5 34.3125C75.7238 34.3125 75.0938 33.6825 75.0938 32.9062C75.0938 32.13 75.7238 31.5 76.5 31.5Z" fill="black"/>
<path d="M80.7188 41.3438H77.9062V44.1562H80.7188V41.3438Z" fill="black"/>
<path d="M75.0938 44.1562H72.2812V46.9688H75.0938V44.1562Z" fill="black"/>
<path d="M63.8438 62.4375H61.0312V65.25H63.8438V62.4375Z" fill="black"/>
<path d="M55.4062 66.6562H52.5938V69.4688H55.4062V66.6562Z" fill="black"/>
<path d="M38.5312 63.8438H35.7188V66.6562H38.5312V63.8438Z" fill="black"/>
<path d="M46.9688 34.3125H44.1562V37.125H46.9688V34.3125Z" fill="black"/>
<path d="M42.75 44.1562H39.9375V46.9688H42.75V44.1562Z" fill="black"/>
<path d="M31.5 68.0625H28.6875V70.875H31.5V68.0625Z" fill="black"/>
</g>
<defs>
<filter id="filter0_f_154_160" x="-1" y="-1" width="110" height="110" filterUnits="userSpaceOnUse" color-interpolation-filters="sRGB">
<feFlood flood-opacity="0" result="BackgroundImageFix"/>
<feBlend mode="normal" in="SourceGraphic" in2="BackgroundImageFix" result="shape"/>
<feGaussianBlur stdDeviation="5" result="effect1_foregroundBlur_154_160"/>
</filter>
</defs>
</svg>
