<svg width="150" height="150" viewBox="0 0 150 150" fill="none" xmlns="http://www.w3.org/2000/svg">
<path d="M76.2021 139.261C111.63 139.261 140.351 110.541 140.351 75.1125C140.351 39.6843 111.63 10.9641 76.2021 10.9641C40.7739 10.9641 12.0537 39.6843 12.0537 75.1125C12.0537 110.541 40.7739 139.261 76.2021 139.261Z" fill="#FFE9CC"/>
<path d="M76.3219 130.038C106.591 130.038 131.128 105.501 131.128 75.232C131.128 44.9634 106.591 20.4258 76.3219 20.4258C46.0532 20.4258 21.5156 44.9634 21.5156 75.232C21.5156 105.501 46.0532 130.038 76.3219 130.038Z" fill="#FFD59E"/>
<path d="M70.0004 114.86C93.929 114.86 113.327 95.4622 113.327 71.5336C113.327 47.605 93.929 28.207 70.0004 28.207C46.0718 28.207 26.6738 47.605 26.6738 71.5336C26.6738 95.4622 46.0718 114.86 70.0004 114.86Z" fill="#C45C00"/>
<path d="M23.5499 60.8953C23.5499 60.8953 35.4843 50.114 48.4077 52.3828C61.3312 54.6515 63.2577 67.3828 58.0171 72.232C58.0171 72.232 56.3062 72.0258 55.3991 69.2062C54.4921 66.3867 51.689 60.2812 46.1296 60.3C40.5702 60.3187 34.6288 61.1953 22.4765 70.9031C22.1595 67.5289 22.5246 64.1255 23.5499 60.8953V60.8953Z" fill="#C98019"/>
<path d="M68.735 48.389C68.735 48.389 85.7436 37.2094 96.7921 49.2C98.9951 53.2045 101.648 56.9444 104.7 60.3469C107.96 63.2437 116.184 65.7234 115.716 75.7594C115.247 85.7953 110.573 89.1187 107.953 89.3531C105.333 89.5875 90.485 87.4219 87.1382 92.1094C83.7913 96.7969 85.371 108.195 81.1147 113.512C76.8585 118.83 56.9296 111.319 62.6928 96.6375C68.4561 81.9562 58.6194 73.7297 56.7819 69.8015C54.9444 65.8734 50.1163 56.039 63.2811 51.4312C76.446 46.8234 73.5069 56.4679 70.0311 57.6211C66.5553 58.7742 59.8897 59.5406 61.1694 66.5484C62.4491 73.5562 70.9569 76.7203 70.3663 86.939C69.7757 97.1578 65.5546 99.7734 67.5655 103.828C69.5764 107.883 76.4319 111.663 77.8991 107.212C79.3663 102.762 77.6085 89.7656 86.4842 84.532C95.36 79.2984 105.019 85.207 107.859 82.4039C110.7 79.6008 110.273 72.4148 104.557 68.3883C99.349 64.4968 95.0828 59.4841 92.0741 53.7211C89.2616 48.6562 79.3428 48.75 70.746 53.9133C62.1491 59.0765 60.9374 53.0929 68.735 48.389Z" fill="#EB9800"/>
<path d="M62.5568 42.8227C62.5568 42.8227 55.7974 34.4086 63.0677 26.4C70.338 18.3914 93.3373 24.2391 91.1599 36.8484C88.9826 49.4578 91.7154 49.0477 95.1443 51.3164C98.5732 53.5852 104.557 53.107 109.129 55.8844C113.702 58.6617 117.541 64.4062 111.297 72.3562C108.384 76.2826 104.151 79.025 99.3766 80.0792C94.6024 81.1333 89.6081 80.4283 85.3123 78.0937C75.431 73.282 68.292 69.5438 63.3771 82.5633C58.4623 95.5828 55.9896 105.284 48.6935 105.879C41.3974 106.474 39.6771 103.859 42.5716 100.598C45.4662 97.3383 48.6654 100.69 51.5107 96.4031C54.356 92.1164 54.267 85.9031 60.6748 76.5844C67.0826 67.2656 76.0404 68.2617 84.8974 73.1344C86.4918 74.1397 88.2717 74.8152 90.1317 75.1207C91.9916 75.4262 93.894 75.3557 95.7263 74.9132C97.5585 74.4707 99.2834 73.6653 100.799 72.5445C102.315 71.4238 103.59 70.0105 104.55 68.3883C108.18 62.9016 106.912 58.8562 91.9099 57.3141C91.9099 57.3141 81.3513 54.2672 83.0248 44.2898C84.6982 34.3125 81.8294 28.9547 75.5576 28.7508C69.2857 28.5469 64.1716 33.6727 67.0545 42.907C69.9373 52.1414 62.5568 42.8227 62.5568 42.8227Z" fill="#D68B00"/>
<path d="M111.546 61.1719C111.546 61.1719 114.239 48.9023 103.838 42.2695C93.436 35.6367 84.0657 46.4461 79.2563 56.332C74.4469 66.2179 78.6399 75.1523 72.6563 79.3359C66.6727 83.5195 56.175 78.539 49.6875 79.4179C43.2 80.2969 27.0352 90.5625 47.5782 108.335C68.1211 126.108 92.3883 106.179 95.5641 101.377C98.7399 96.5742 99.7454 91.3265 103.896 87.6633C108.047 84 100.116 82.9429 98.0719 85.289C95.1558 88.8663 92.7137 92.8051 90.8063 97.0078C88.5422 101.93 76.418 107.951 67.6946 108.096C58.9711 108.241 46.9243 103.723 45.2907 93.5226C43.6571 83.3226 58.4391 86.6906 61.6969 88.1039C64.9547 89.5172 84.375 86.5922 84.375 69.8297C84.375 53.0672 94.6711 47.564 101.576 48.6703C108.481 49.7765 105.959 62.9086 103.971 64.7976C101.984 66.6867 93.3985 74.0719 82.4086 65.332L80.3204 71.0976C80.3204 71.0976 89.536 80.6437 99.443 76.8445C109.35 73.0453 111.546 61.1719 111.546 61.1719Z" fill="#EBBA1D"/>
<path d="M52.8068 74.5172C52.8068 74.5172 38.442 64.0922 50.0178 48.2672C61.5935 32.4422 83.0271 34.9805 84.3748 42.1594C85.7224 49.3383 80.6599 56.1586 86.7185 65.1586C92.7771 74.1586 105.136 73.0898 110.39 86.3719C115.645 99.6539 93.5154 116.067 79.706 103.416C65.8967 90.7641 77.4045 82.2984 81.1123 80.318C84.8201 78.3375 86.3342 81.9234 84.2928 85.0055C82.2514 88.0875 73.4646 94.6664 85.8912 101.592C98.3178 108.518 110.751 93.6351 103.284 85.9219C95.817 78.2086 93.9865 81.2508 84.6279 71.3625C75.2693 61.4742 78.9162 52.6125 78.9467 48.9328C78.9771 45.2531 74.5943 39.5812 67.0357 42.9023C59.4771 46.2234 42.2506 59.9695 58.4224 73.8094C58.4482 73.8141 58.9287 76.7203 52.8068 74.5172Z" fill="#FFCA1F"/>
<path d="M114.206 60.0773C114.206 60.0773 99.4076 51.5203 89.7655 68.318C80.1233 85.1156 109.476 95.1609 111.501 87.6258C113.526 80.0906 110.857 83.0109 107.269 83.5922C103.68 84.1734 90.8623 84.5648 93.0819 70.7578C95.0155 58.7883 109.772 61.043 113.041 64.0125C113.254 64.2257 113.514 64.3868 113.8 64.4831C114.086 64.5794 114.39 64.6084 114.689 64.5678C114.987 64.5272 115.273 64.4181 115.522 64.249C115.772 64.0799 115.979 63.8554 116.128 63.593C116.557 62.7352 116.301 61.5656 114.206 60.0773Z" fill="#FFD85E"/>
<path d="M77.1091 93.1523C77.1091 93.1523 86.7982 87.7289 85.399 79.2234C83.9998 70.7179 82.5865 72.5625 82.8208 74.1867C83.0552 75.8109 85.1974 81.4922 81.963 85.8234C80.4071 88.3545 78.2941 90.4972 75.7849 92.0883C72.4076 94.6664 76.4224 93.6258 77.1091 93.1523Z" fill="#FFE38A"/>
<path d="M73.9566 37.8258C73.9566 37.8258 81.5222 36.7313 83.2074 41.7281C84.8925 46.725 83.8566 43.8211 81.541 42.2906C79.2253 40.7602 69.0863 39.6094 73.9566 37.8258Z" fill="#FFD85E"/>
<path d="M86.0457 122.92C107.18 122.92 124.312 105.788 124.312 84.6539C124.312 63.5199 107.18 46.3875 86.0457 46.3875C64.9118 46.3875 47.7793 63.5199 47.7793 84.6539C47.7793 105.788 64.9118 122.92 86.0457 122.92Z" fill="#D96600"/>
<path d="M104.817 122.323C104.817 122.323 111.593 109.84 106.969 99.2156C102.344 88.5914 91.01 89.5804 87.9326 95.0859C87.9326 95.0859 88.467 96.5133 91.0756 96.7078C93.6842 96.9023 99.5131 98.0414 100.643 102.818C101.772 107.594 102.26 112.875 96.4475 125.318C99.41 124.891 102.256 123.872 104.817 122.323V122.323Z" fill="#C98019"/>
<path d="M106.172 80.9367C106.172 80.9367 112.24 64.0172 99.6514 57.0305C95.7566 55.9694 91.9956 54.4675 88.4412 52.5539C85.2795 50.3555 81.4451 43.8141 72.928 46.3055C64.4108 48.7969 62.5311 53.482 62.8709 55.7812C63.2108 58.0805 68.1537 70.3664 64.8233 74.2125C61.4928 78.0586 51.3819 79.0664 47.6998 83.8219C44.0178 88.5773 54.5998 104.128 66.0022 96.1359C77.4045 88.1437 86.5123 94.8797 90.2647 95.6437C94.017 96.4078 103.474 98.5055 104.7 86.2547C105.926 74.0039 98.2545 78.5203 97.985 81.7453C97.7155 84.9703 98.4537 90.8508 92.1608 91.207C85.8678 91.5633 81.3983 84.9141 72.7569 87.5391C64.1155 90.1641 62.7256 94.3359 58.8397 93.4406C54.9537 92.5453 50.2709 87.4547 53.7889 85.2726C57.3069 83.0906 68.8264 81.9023 71.4678 73.1977C74.1092 64.493 67.0428 57.4219 68.8592 54.4101C70.6756 51.3984 76.9334 50.2641 81.5764 54.3351C85.9968 57.9989 91.1852 60.6208 96.7569 62.0062C101.679 63.3703 103.666 71.9062 101.018 80.3531C98.3694 88.8 103.758 88.6055 106.172 80.9367Z" fill="#EB9800"/>
<path d="M112.237 85.0781C114.647 86.197 117.376 86.4245 119.938 85.7203C122.501 85.016 124.73 83.4256 126.229 81.232C131.597 73.3289 121.804 54.7992 111.433 59.2851C101.062 63.7711 100.844 61.3383 98.1841 58.8656C95.524 56.3929 94.6872 51.1617 91.3615 47.8125C88.0357 44.4633 82.2982 42.3586 76.7716 49.3664C74.0076 52.6825 72.5332 56.8847 72.6193 61.2008C72.7054 65.5169 74.3463 69.6569 77.2404 72.8601C83.4209 80.3461 88.113 85.6992 77.9435 92.6203C67.774 99.5414 59.974 103.676 60.9748 110.062C61.9755 116.449 64.5794 117.384 66.7779 114.223C68.9763 111.061 65.4326 109.003 68.524 105.68C71.6154 102.356 76.9615 101.135 83.6365 93.6984C90.3115 86.2617 87.5927 78.7805 81.574 72.1898C80.3803 71.0293 79.4314 69.6413 78.7834 68.1077C78.1355 66.5741 77.8016 64.9262 77.8016 63.2613C77.8016 61.5965 78.1355 59.9485 78.7834 58.4149C79.4314 56.8814 80.3803 55.4933 81.574 54.3328C85.5302 50.0789 89.2662 50.3273 93.7029 62.8851C93.7029 62.8851 98.5052 71.3226 106.727 67.807C114.949 64.2914 120.14 65.6508 121.617 70.9922C123.093 76.3336 119.765 81.7969 111.232 81.2367C102.698 80.6765 112.237 85.0781 112.237 85.0781Z" fill="#D68B00"/>
<path d="M86.3152 46.8398C86.3152 46.8398 96.2879 41.9836 104.142 49.5351C111.996 57.0867 104.66 67.3734 97.1738 73.5539C89.6879 79.7344 81.1473 77.9883 78.7941 83.9836C76.441 89.9789 82.898 97.9664 83.4816 103.727C84.0652 109.488 78.6184 125.487 59.1066 111.546C39.5949 97.6055 51.6605 72.6398 55.1223 68.9109C58.584 65.182 62.8824 63.2344 65.1676 58.9101C67.4527 54.5859 70.0027 61.1766 68.4137 63.4195C65.9472 66.6655 63.0728 69.5802 59.8613 72.0914C56.1113 75.0516 53.4535 86.7117 55.1387 94.2305C56.8238 101.749 63.2035 111.152 72.2973 110.44C81.391 109.727 75.4355 97.7344 73.5465 95.2336C71.6574 92.7328 70.1316 75.4453 84.5246 71.9695C98.9176 68.4937 101.51 58.507 99.1191 52.8117C96.7285 47.1164 85.9941 52.0031 84.7777 54.1008C83.5613 56.1984 79.0074 65.1023 88.7902 72.7125L84.2762 75.7031C84.2762 75.7031 74.1699 69.7734 75.3699 60.4687C76.5699 51.1641 86.3152 46.8398 86.3152 46.8398Z" fill="#EBBA1D"/>
<path d="M87.0514 100.034C87.0514 100.034 98.9835 110.201 110.163 96.9867C121.343 83.7726 114.722 65.8922 108.288 66.2226C101.855 66.5531 97.0382 72.3164 88.0569 68.9789C79.0757 65.6414 77.428 54.8133 64.9335 53.0414C52.4389 51.2695 42.9327 73.6875 56.66 82.9219C70.3874 92.1562 75.2647 80.5148 76.1952 76.9148C77.1257 73.3148 73.7319 72.7641 71.5077 75.157C69.2835 77.55 65.4608 86.4586 56.9366 77.2266C48.4124 67.9945 58.61 54.2344 66.7803 59.0461C74.9507 63.8578 72.7194 66.0562 83.1491 72.0398C93.5788 78.0234 100.432 73.0523 103.584 72.2742C106.737 71.4961 112.514 74.0719 111.232 81.2484C109.95 88.425 101.719 106.055 86.4843 95.0437C86.4843 95.0437 83.8921 95.2336 87.0514 100.034Z" fill="#FFCA1F"/>
<path d="M127.352 92.6976C123.657 91.3815 120.425 89.0201 118.047 85.9008C113.02 80.1094 106.441 73.9875 93.1636 79.8633C79.8863 85.739 81.7847 100.896 91.8418 107.285C91.8418 107.285 95.1488 108.129 91.5324 104.02C87.916 99.9117 84.3722 92.5242 91.298 87.0703C98.2238 81.6164 104.772 81.3797 110.543 86.3672C116.313 91.3547 119.029 97.2375 125.828 98.7258C126.634 96.8035 127.147 94.7717 127.352 92.6976Z" fill="#FFD03B"/>
<path d="M106.516 118.695C106.516 118.695 124.083 114.206 123.391 92.1656C123.391 92.1656 122.105 80.5547 109.251 82.1742C96.3983 83.7937 91.6404 80.114 87.5319 75.7359C83.4233 71.3578 75.2131 68.1844 67.3592 77.4281C59.5053 86.6719 67.4834 115.484 87.6373 110.611C107.791 105.738 88.5608 122.815 85.3686 122.449C82.1764 122.084 80.8006 121.362 76.1272 117.387C71.4537 113.412 61.3733 101.06 49.7529 102.152C49.7529 102.152 48.7264 103.057 51.8318 106.317C54.9373 109.577 58.5256 104.911 69.8131 115.976C81.1006 127.041 85.0029 131.034 97.7459 118.336C110.489 105.637 98.2147 104.637 95.3389 105.127C92.4631 105.616 81.6936 108.799 75.5694 101.988C69.4451 95.1773 68.6506 83.8359 73.7928 79.5047C78.935 75.1734 82.1693 76.6922 86.299 81.6539C90.4287 86.6156 101.897 89.2805 109.326 86.8922C116.756 84.5039 122.428 94.8 115.275 107.489C108.122 120.178 90.1592 116.686 86.4842 116.25C83.4209 115.88 72.5553 114.452 67.7037 117.715C67.3521 117.966 67.0652 118.297 66.8668 118.68C66.6685 119.064 66.5643 119.489 66.5629 119.921C66.5615 120.353 66.663 120.779 66.8589 121.164C67.0549 121.549 67.3396 121.882 67.6897 122.135C68.5482 122.915 69.6807 123.324 70.8397 123.272C72.8506 122.831 71.2358 119.522 94.9686 120.478C97.761 120.588 100.555 120.303 103.268 119.632C104.346 119.358 105.469 119.046 106.516 118.695Z" fill="#FFD85E"/>
<path d="M86.7187 44.3273C86.7187 44.3273 97.1344 55.2562 84.7125 67.0101C72.2906 78.764 57.5812 55.6594 63.6187 52.357C69.6562 49.0547 67.7156 51.9515 67.9593 55.1555C68.2031 58.3594 70.5375 69.4523 81.9211 64.6711C91.7953 60.5273 86.7984 48.3258 83.5617 46.1367C83.3344 45.9978 83.1423 45.8083 83.0003 45.583C82.8583 45.3576 82.7703 45.1026 82.7431 44.8376C82.7159 44.5727 82.7502 44.305 82.8434 44.0555C82.9366 43.806 83.0862 43.5814 83.2804 43.3992C83.939 42.8625 84.9961 42.8367 86.7187 44.3273Z" fill="#FFD85E"/>
<path d="M66.0139 83.0391C66.0139 83.0391 68.6577 73.5984 76.2491 73.0336C83.8405 72.4687 82.5514 74.0578 81.11 74.2055C79.6686 74.3531 74.3459 73.6781 71.2991 77.3531C69.4491 79.2146 68.048 81.4734 67.2022 83.9578C65.6881 87.3867 65.7491 83.7234 66.0139 83.0391Z" fill="#FFE38A"/>
<path d="M114.161 74.264C114.161 74.264 113.533 67.5422 108.893 67.132C104.252 66.7219 106.961 67.0078 108.757 68.6789C110.552 70.35 113.653 78.8109 114.161 74.264Z" fill="#FFD85E"/>
<path d="M50.1559 28.2141C50.1559 28.2141 52.3941 32.6531 60.1074 36.6516C67.8207 40.65 76.3051 46.2609 73.3707 62.4328C70.4363 78.6047 53.2519 80.55 43.5535 71.1773C43.5535 71.1773 41.7441 67.7625 47.2285 70.6523C52.7129 73.5422 61.7855 75.4734 65.9434 66.3937C70.1012 57.3141 68.6223 50.0484 61.591 45.0258C54.5598 40.0031 47.3691 38.5781 43.9238 31.4906C43.9285 31.4859 48.8762 28.1039 50.1559 28.2141Z" fill="#FFD03B"/>
<path d="M27.089 58.0617C27.089 58.0617 27.3585 37.5328 51.7991 32.4422C51.7991 32.4422 64.9241 30.7688 66.5647 45.3469C68.2054 59.925 73.5163 64.1813 79.4319 67.5375C85.3476 70.8938 91.0194 79.0852 82.9335 90.1898C74.8476 101.295 41.0155 100.177 41.0155 76.6992C41.0155 53.2219 27.3397 78.9281 28.5937 82.3453C29.8476 85.7625 31.0054 87.0844 36.6233 91.1695C42.2413 95.2547 58.5187 103.064 60.4054 116.145C60.4054 116.145 59.6812 117.513 55.2679 114.973C50.8546 112.432 55.0335 107.238 39.853 97.7531C24.6726 88.268 19.228 85.0406 29.8241 67.6406C40.4202 50.2406 44.7772 63.4805 45.0022 66.7734C45.2272 70.0664 44.5897 82.7672 53.7163 87.6961C62.8429 92.625 75.5296 90.4688 78.9257 83.6719C82.3218 76.875 79.7882 73.7039 73.2327 70.4766C66.6772 67.2492 60.703 55.3313 61.3452 46.5188C61.9874 37.7063 49.1577 34.2047 37.0944 45.4523C25.0312 56.7 33.6515 75.5274 35.121 79.4531C36.3444 82.7344 40.8046 94.3031 38.503 100.512C38.3202 100.965 38.0322 101.369 37.6626 101.689C37.2931 102.009 36.8526 102.237 36.3777 102.353C35.9028 102.469 35.4071 102.471 34.9314 102.358C34.4557 102.245 34.0138 102.02 33.6421 101.702C32.5559 100.964 31.8053 99.8271 31.5538 98.5383C31.5046 96.2086 35.571 97.1063 28.2093 71.2406C27.3481 68.1962 26.9189 65.0459 26.9343 61.882C26.939 60.6258 26.9788 59.2969 27.089 58.0617Z" fill="#FFE38C"/>
<path d="M62.2402 35.7516C62.2402 35.7516 66.166 37.8937 66.9699 48.4266C67.2792 52.4501 68.615 56.327 70.8496 59.6872C73.0842 63.0473 76.1431 65.7784 79.734 67.6195C81.4275 68.5054 82.9165 69.7363 84.1051 71.2328C85.2937 72.7294 86.1555 74.4585 86.6349 76.3085C87.1143 78.1586 87.2007 80.0886 86.8885 81.9741C86.5763 83.8595 85.8724 85.6587 84.8223 87.2555C84.8223 87.2555 90.8035 74.5805 79.0191 68.243C67.2348 61.9055 66.3465 53.243 65.8098 48.2484C65.273 43.2539 65.184 39.7687 62.2402 35.7516Z" fill="#FFF4D1"/>
<path d="M106.572 45.689C105.216 43.6458 103.201 42.1295 100.861 41.3933C98.5222 40.6571 96.0012 40.7455 93.7194 41.6437C93.7194 41.6437 91.1014 43.1906 94.5514 42.9539C96.5379 42.5885 98.5821 42.6889 100.523 43.2473C102.464 43.8057 104.249 44.8068 105.738 46.1719C109.31 49.7367 107.048 46.2844 106.572 45.689Z" fill="#FFD03B"/>
<path d="M82.4131 83.2992C82.4131 83.2992 85.2678 79.0148 83.1163 75.443C80.9647 71.8711 81.9702 71.2523 83.1397 72.0398C84.2437 73.0737 85.095 74.3477 85.6278 75.7633C86.1606 77.1788 86.3606 78.6979 86.2124 80.2031C86.0366 84.6563 83.2358 90.9164 78.478 92.4633C73.7202 94.0102 76.6991 89.6063 82.4131 83.2992Z" fill="#FFF0C2"/>
<path d="M33.2601 63.0656C33.2601 63.0656 37.5445 58.1859 40.4015 59.4961C41.4903 60.1995 42.401 61.1461 43.0619 62.2613C43.7228 63.3764 44.1158 64.6298 44.2101 65.9226C44.3273 67.1133 44.6789 72.4687 44.9132 73.7765C45.1476 75.0843 43.4859 74.7304 43.3664 72.3492C43.2468 69.9679 43.3663 61.6383 40.0335 61.0429C38.8303 60.8428 37.5948 60.9947 36.4758 61.4804C35.3569 61.9661 34.4021 62.7648 33.7265 63.7804C32.9039 64.9711 32.7843 63.7804 33.2601 63.0656Z" fill="#FFF0C2"/>
<path d="M59.5312 35.5969L59.2429 38.1164C59.2066 38.4462 59.257 38.7797 59.3894 39.084C59.5217 39.3882 59.7313 39.6526 59.9973 39.8508C60.2633 40.0491 60.5765 40.1744 60.9059 40.2142C61.2352 40.2541 61.5693 40.2072 61.8749 40.0781L61.9359 40.0523C62.2451 39.922 62.5144 39.7123 62.7164 39.4443C62.9184 39.1764 63.046 38.8598 63.0862 38.5267C63.1264 38.1935 63.0778 37.8557 62.9454 37.5474C62.8129 37.239 62.6013 36.9712 62.332 36.7711L60.307 35.243C60.2366 35.1928 60.1543 35.162 60.0682 35.1537C59.9822 35.1454 59.8955 35.16 59.8169 35.1959C59.7382 35.2317 59.6704 35.2877 59.6203 35.3581C59.5701 35.4285 59.5394 35.5108 59.5312 35.5969V35.5969Z" fill="white"/>
<path d="M53.2379 60.8859L51.1285 62.2922C50.8525 62.4778 50.63 62.7326 50.4831 63.0311C50.3362 63.3296 50.2702 63.6614 50.2915 63.9934C50.3129 64.3254 50.4209 64.646 50.6047 64.9232C50.7886 65.2004 51.0419 65.4246 51.3395 65.5734L51.3981 65.6015C51.6968 65.7503 52.0293 65.8179 52.3624 65.7977C52.6955 65.7776 53.0175 65.6703 53.296 65.4866C53.5746 65.3029 53.8001 65.0493 53.9499 64.7511C54.0997 64.4529 54.1686 64.1206 54.1496 63.7875L54.0043 61.2539C53.9967 61.1685 53.967 61.0865 53.9182 61.0161C53.8694 60.9456 53.8031 60.889 53.7258 60.8519C53.6485 60.8148 53.5629 60.7984 53.4773 60.8044C53.3918 60.8104 53.3093 60.8384 53.2379 60.8859Z" fill="white"/>
<path d="M41.6344 91.5914L39.525 92.9976C39.249 93.1833 39.0264 93.4381 38.8796 93.7366C38.7327 94.0351 38.6667 94.3669 38.688 94.6989C38.7093 95.0308 38.8173 95.3514 39.0012 95.6287C39.1851 95.9059 39.4384 96.1301 39.736 96.2789L39.7945 96.307C40.0933 96.4557 40.4258 96.5234 40.7589 96.5032C41.092 96.483 41.4139 96.3758 41.6925 96.1921C41.9711 96.0084 42.1966 95.7548 42.3464 95.4566C42.4962 95.1584 42.5651 94.8261 42.5461 94.493L42.4008 91.9594C42.3932 91.874 42.3635 91.792 42.3147 91.7215C42.2659 91.6511 42.1995 91.5945 42.1223 91.5574C42.045 91.5203 41.9594 91.5039 41.8738 91.5099C41.7883 91.5158 41.7058 91.5439 41.6344 91.5914Z" fill="white"/>
<path d="M103.223 92.3039L101.114 93.7101C100.839 93.8962 100.617 94.1511 100.47 94.4496C100.324 94.748 100.258 95.0795 100.279 95.4112C100.301 95.7429 100.408 96.0633 100.592 96.3405C100.775 96.6177 101.028 96.8421 101.325 96.9914L101.386 97.0218C101.684 97.1707 102.017 97.2385 102.35 97.2184C102.683 97.1983 103.005 97.091 103.283 96.9072C103.562 96.7235 103.787 96.4697 103.937 96.1715C104.086 95.8732 104.155 95.5409 104.135 95.2078L103.99 92.6742C103.983 92.5886 103.953 92.5063 103.905 92.4356C103.856 92.3648 103.79 92.3079 103.712 92.2705C103.635 92.2332 103.549 92.2166 103.463 92.2224C103.378 92.2283 103.295 92.2563 103.223 92.3039Z" fill="white"/>
<path d="M97.7786 45.4687L97.106 47.9133C97.0192 48.2344 97.0181 48.5727 97.1026 48.8945C97.1872 49.2163 97.3545 49.5103 97.588 49.7473C97.8215 49.9843 98.1129 50.1561 98.4334 50.2455C98.7538 50.3349 99.0921 50.3389 99.4146 50.257L99.4802 50.2406C99.8036 50.158 100.1 49.9918 100.338 49.7587C100.577 49.5256 100.751 49.2338 100.841 48.9125C100.932 48.5913 100.936 48.2519 100.854 47.9284C100.772 47.6049 100.606 47.3087 100.373 47.0695L98.6083 45.2484C98.5474 45.1857 98.4709 45.1404 98.3866 45.117C98.3024 45.0937 98.2135 45.0932 98.129 45.1157C98.0445 45.1381 97.9675 45.1826 97.9059 45.2447C97.8444 45.3067 97.8004 45.3841 97.7786 45.4687V45.4687Z" fill="white"/>
<path d="M77.3435 111.019L76.2162 113.29C76.0678 113.589 76.0006 113.922 76.0212 114.255C76.0419 114.588 76.1497 114.91 76.3339 115.188C76.518 115.467 76.7721 115.692 77.0707 115.841C77.3692 115.99 77.7017 116.059 78.0349 116.039H78.1006C78.4334 116.019 78.7553 115.912 79.0339 115.729C79.3125 115.546 79.5382 115.293 79.6884 114.995C79.8386 114.697 79.908 114.365 79.8897 114.032C79.8714 113.699 79.7661 113.377 79.5842 113.098L78.199 110.972C78.1516 110.899 78.0858 110.84 78.0083 110.801C77.9309 110.762 77.8444 110.743 77.7577 110.748C77.671 110.753 77.5871 110.78 77.5144 110.828C77.4417 110.875 77.3827 110.941 77.3435 111.019V111.019Z" fill="white"/>
<path d="M70.6873 83.4914L68.9319 81.6586C68.7009 81.418 68.4108 81.2422 68.0906 81.1488C67.7704 81.0555 67.4313 81.0478 67.1072 81.1266C66.7831 81.2053 66.4854 81.3678 66.2438 81.5977C66.0021 81.8276 65.8251 82.1169 65.7303 82.4367L65.7116 82.5C65.6174 82.8193 65.6086 83.1577 65.6859 83.4816C65.7633 83.8054 65.9241 84.1033 66.1524 84.3456C66.3808 84.5879 66.6686 84.7661 66.9872 84.8626C67.3059 84.959 67.6442 84.9703 67.9686 84.8953L70.4366 84.314C70.5218 84.2949 70.6005 84.2535 70.6646 84.1941C70.7287 84.1347 70.7759 84.0593 70.8014 83.9757C70.8269 83.8921 70.8297 83.8032 70.8097 83.7182C70.7897 83.6331 70.7475 83.5548 70.6873 83.4914V83.4914Z" fill="white"/>
<path d="M106.837 73.4672L109.341 73.05C109.67 72.9962 109.98 72.8567 110.239 72.6455C110.497 72.4343 110.696 72.1588 110.815 71.8466C110.933 71.5345 110.968 71.1966 110.915 70.8669C110.862 70.5372 110.723 70.2272 110.512 69.968L110.47 69.9164C110.26 69.6575 109.985 69.4585 109.673 69.3393C109.361 69.2202 109.024 69.1851 108.694 69.2375C108.365 69.29 108.055 69.4282 107.796 69.6383C107.536 69.8483 107.337 70.1229 107.217 70.4344L106.303 72.8016C106.272 72.8822 106.263 72.9695 106.277 73.0547C106.29 73.14 106.325 73.2203 106.379 73.2876C106.433 73.3549 106.504 73.4069 106.584 73.4384C106.665 73.4699 106.752 73.4798 106.837 73.4672V73.4672Z" fill="white"/>
<path d="M111.731 104.013L112.856 106.287C113.002 106.586 113.225 106.841 113.501 107.027C113.777 107.213 114.097 107.324 114.429 107.347C114.761 107.371 115.094 107.307 115.393 107.162C115.693 107.017 115.95 106.796 116.137 106.521L116.175 106.465C116.361 106.188 116.472 105.868 116.495 105.535C116.519 105.202 116.455 104.869 116.309 104.569C116.163 104.269 115.941 104.012 115.665 103.825C115.389 103.638 115.068 103.527 114.736 103.502L112.207 103.315C112.122 103.31 112.037 103.328 111.961 103.366C111.885 103.403 111.82 103.46 111.772 103.53C111.725 103.6 111.696 103.682 111.688 103.766C111.681 103.851 111.696 103.936 111.731 104.013Z" fill="white"/>
<path d="M60.2014 113.548L58.092 114.954C57.8167 115.14 57.5949 115.395 57.4487 115.694C57.3024 115.992 57.2368 116.324 57.2584 116.656C57.28 116.987 57.3879 117.308 57.5716 117.585C57.7552 117.862 58.0082 118.086 58.3053 118.235L58.3639 118.263C58.6625 118.412 58.995 118.48 59.328 118.46C59.661 118.44 59.9829 118.332 60.2614 118.149C60.5399 117.965 60.7652 117.711 60.9146 117.413C61.0641 117.115 61.1326 116.782 61.1131 116.449L60.9678 113.916C60.9602 113.83 60.9305 113.748 60.8817 113.678C60.8329 113.607 60.7666 113.551 60.6893 113.514C60.612 113.477 60.5264 113.46 60.4408 113.466C60.3553 113.472 60.2728 113.5 60.2014 113.548V113.548Z" fill="white"/>
<path d="M39.4497 50.775L37.6614 48.9773C37.4259 48.7408 37.1325 48.5703 36.8104 48.4829C36.4883 48.3954 36.1489 48.3941 35.8261 48.4791C35.5033 48.5641 35.2086 48.7323 34.9713 48.967C34.734 49.2017 34.5625 49.4946 34.4739 49.8164L34.4575 49.8797C34.37 50.2009 34.3683 50.5395 34.4526 50.8617C34.5369 51.1838 34.7042 51.4781 34.9379 51.7154C35.1716 51.9526 35.4634 52.1243 35.7842 52.2135C36.105 52.3026 36.4436 52.3061 36.7661 52.2234L39.2224 51.5953C39.3053 51.5729 39.381 51.5293 39.4419 51.4687C39.5029 51.4082 39.547 51.3328 39.5699 51.25C39.5929 51.1672 39.5939 51.0798 39.5728 50.9965C39.5517 50.9133 39.5093 50.8369 39.4497 50.775Z" fill="white"/>
<path d="M94.6402 34.1367L97.1762 34.0641C97.5098 34.0546 97.8351 33.9576 98.1195 33.7829C98.4039 33.6082 98.6374 33.3618 98.7966 33.0685C98.9559 32.7751 99.0353 32.4451 99.0269 32.1114C99.0185 31.7778 98.9226 31.4521 98.7488 31.1672L98.7137 31.1109C98.5394 30.8266 98.2936 30.593 98.0008 30.4333C97.708 30.2736 97.3785 30.1934 97.0451 30.2008C96.7117 30.2081 96.3861 30.3027 96.1006 30.4752C95.8152 30.6476 95.58 30.8919 95.4183 31.1836L94.1949 33.4055C94.1526 33.4815 94.1312 33.5674 94.1329 33.6544C94.1346 33.7414 94.1594 33.8264 94.2046 33.9008C94.2499 33.9751 94.3141 34.0361 94.3906 34.0775C94.4671 34.119 94.5532 34.1394 94.6402 34.1367Z" fill="white"/>
<path d="M121.734 58.7883L121.912 61.3195C121.935 61.6525 122.045 61.9736 122.231 62.2506C122.417 62.5276 122.673 62.7508 122.973 62.8978C123.272 63.0448 123.605 63.1104 123.938 63.088C124.271 63.0656 124.593 62.9561 124.87 62.7703L124.924 62.7352C125.199 62.549 125.42 62.2943 125.567 61.9962C125.713 61.6981 125.779 61.367 125.758 61.0356C125.738 60.7042 125.631 60.3839 125.448 60.1065C125.265 59.8291 125.014 59.6042 124.718 59.4539L122.446 58.3219C122.369 58.2839 122.284 58.2667 122.198 58.2719C122.112 58.2772 122.029 58.3047 121.957 58.3518C121.885 58.3988 121.827 58.4639 121.788 58.5404C121.748 58.617 121.73 58.7024 121.734 58.7883V58.7883Z" fill="white"/>
<path d="M76.706 31.9125L77.449 29.4891C77.5469 29.1701 77.5594 28.831 77.4852 28.5057C77.411 28.1804 77.2526 27.8803 77.026 27.6355C76.7994 27.3906 76.5125 27.2095 76.1939 27.1103C75.8753 27.0111 75.5363 26.9973 75.2107 27.0703L75.1451 27.0867C74.8195 27.1597 74.5187 27.317 74.2731 27.5429C74.0275 27.7688 73.8455 28.0553 73.7456 28.3737C73.6456 28.6921 73.6311 29.0312 73.7036 29.3569C73.776 29.6827 73.9329 29.9837 74.1584 30.2297L75.8693 32.1047C75.9284 32.1687 76.0034 32.216 76.0866 32.2417C76.1699 32.2675 76.2585 32.2707 76.3434 32.2512C76.4283 32.2317 76.5066 32.1901 76.5703 32.1306C76.6339 32.0712 76.6808 31.9959 76.706 31.9125Z" fill="white"/>
<path d="M27.3538 81.9492L25.2444 83.3555C24.9691 83.5417 24.7473 83.7968 24.601 84.0954C24.4548 84.3939 24.3892 84.7255 24.4108 85.0572C24.4323 85.3889 24.5403 85.7092 24.7239 85.9863C24.9076 86.2634 25.1605 86.4876 25.4577 86.6367L25.5163 86.6648C25.8148 86.8137 26.1473 86.8815 26.4803 86.8614C26.8134 86.8413 27.1353 86.734 27.4137 86.5502C27.6922 86.3665 27.9175 86.1127 28.067 85.8145C28.2165 85.5162 28.2849 85.1838 28.2655 84.8508L28.1248 82.3312C28.12 82.2439 28.0921 82.1594 28.0439 82.0864C27.9957 82.0133 27.929 81.9544 27.8506 81.9155C27.7722 81.8767 27.6849 81.8594 27.5976 81.8653C27.5103 81.8712 27.4262 81.9001 27.3538 81.9492V81.9492Z" fill="white"/>
<path d="M80.9083 62.6695L78.7989 64.0758C78.5229 64.2615 78.3004 64.5162 78.1535 64.8147C78.0066 65.1132 77.9406 65.445 77.9619 65.777C77.9833 66.109 78.0913 66.4296 78.2751 66.7068C78.459 66.984 78.7123 67.2082 79.0099 67.357L79.0685 67.3875C79.3672 67.5362 79.6997 67.6039 80.0328 67.5837C80.3659 67.5635 80.6879 67.4562 80.9665 67.2726C81.2451 67.0889 81.4705 66.8353 81.6203 66.5371C81.7701 66.2389 81.839 65.9066 81.82 65.5734L81.6771 63.0469C81.6712 62.9603 81.6426 62.8768 81.5943 62.8047C81.5459 62.7327 81.4795 62.6746 81.4016 62.6364C81.3237 62.5981 81.2371 62.5811 81.1505 62.5869C81.0639 62.5927 80.9804 62.6212 80.9083 62.6695V62.6695Z" fill="white"/>
<path d="M34.2773 63.8625L34.2445 63.8953C34.0233 64.1164 33.8479 64.3789 33.7282 64.6679C33.6085 64.9568 33.5469 65.2665 33.5469 65.5793C33.5469 65.892 33.6085 66.2017 33.7282 66.4907C33.8479 66.7796 34.0233 67.0421 34.2445 67.2633L41.8101 74.8312C42.0313 75.0524 42.2938 75.2279 42.5827 75.3476C42.8717 75.4673 43.1814 75.5289 43.4941 75.5289C43.8069 75.5289 44.1166 75.4673 44.4055 75.3476C44.6944 75.2279 44.957 75.0524 45.1781 74.8312L45.3234 74.6859C45.5467 74.4626 45.7233 74.1972 45.8431 73.9051C45.963 73.6129 46.0235 73.2999 46.0214 72.9841C46.0192 72.6684 45.9543 72.3562 45.8304 72.0658C45.7066 71.7753 45.5263 71.5123 45.3 71.2922L37.6195 63.8367C37.1709 63.4007 36.5687 63.1589 35.9431 63.1638C35.3176 63.1686 34.7191 63.4196 34.2773 63.8625Z" fill="#FF8800"/>
<path d="M35.6554 64.6477L35.6343 64.6687C35.4993 64.8037 35.3922 64.9639 35.3192 65.1402C35.2461 65.3166 35.2085 65.5056 35.2085 65.6965C35.2085 65.8874 35.2461 66.0764 35.3192 66.2527C35.3922 66.429 35.4993 66.5893 35.6343 66.7242L40.2585 71.3484C40.5318 71.6207 40.9018 71.7735 41.2875 71.7735C41.6731 71.7735 42.0431 71.6207 42.3164 71.3484L42.4054 71.2594C42.5418 71.1231 42.6497 70.9609 42.7229 70.7825C42.796 70.6041 42.8329 70.4128 42.8313 70.22C42.8298 70.0272 42.7899 69.8365 42.714 69.6593C42.638 69.482 42.5276 69.3216 42.389 69.1875L37.7015 64.6312C37.4266 64.3648 37.0579 64.2171 36.6751 64.2202C36.2923 64.2232 35.926 64.3768 35.6554 64.6477V64.6477Z" fill="#FFAA00"/>
<path d="M45.2343 96.7101L45.1991 96.743C44.9779 96.9641 44.8025 97.2266 44.6828 97.5155C44.5631 97.8045 44.5015 98.1142 44.5015 98.4269C44.5015 98.7397 44.5631 99.0494 44.6828 99.3383C44.8025 99.6273 44.9779 99.8898 45.1991 100.111L52.7671 107.679C52.9882 107.9 53.2507 108.076 53.5397 108.195C53.8286 108.315 54.1383 108.377 54.4511 108.377C54.7638 108.377 55.0735 108.315 55.3624 108.195C55.6514 108.076 55.9139 107.9 56.135 107.679L56.2804 107.534C56.5032 107.31 56.6793 107.044 56.7985 106.752C56.9177 106.459 56.9776 106.146 56.9748 105.83C56.972 105.515 56.9064 105.203 56.782 104.912C56.6575 104.622 56.4767 104.36 56.2499 104.14L48.5718 96.6844C48.1234 96.2498 47.5221 96.0089 46.8977 96.0137C46.2733 96.0186 45.6759 96.2687 45.2343 96.7101V96.7101Z" fill="#FF5900"/>
<path d="M46.6053 97.5L46.5842 97.5211C46.312 97.7943 46.1592 98.1643 46.1592 98.55C46.1592 98.9357 46.312 99.3057 46.5842 99.5789L51.2085 104.201C51.3434 104.336 51.5036 104.443 51.68 104.516C51.8563 104.589 52.0453 104.627 52.2362 104.627C52.4271 104.627 52.6161 104.589 52.7924 104.516C52.9688 104.443 53.129 104.336 53.2639 104.201L53.353 104.112C53.4893 103.975 53.5971 103.813 53.6703 103.635C53.7434 103.457 53.7804 103.266 53.7791 103.073C53.7778 102.88 53.7382 102.69 53.6626 102.512C53.5871 102.335 53.477 102.174 53.3389 102.04L48.6514 97.4836C48.3768 97.2166 48.008 97.0685 47.625 97.0716C47.242 97.0747 46.8756 97.2286 46.6053 97.5V97.5Z" fill="#FF8800"/>
<path d="M77.7188 95.9039H77.6742C77.3684 95.9701 77.0785 96.0959 76.8213 96.2741C76.5641 96.4524 76.3445 96.6796 76.1752 96.9427C76.0058 97.2059 75.89 97.4999 75.8344 97.8078C75.7787 98.1158 75.7843 98.4317 75.8508 98.7375L78.1242 109.195C78.1907 109.501 78.3166 109.791 78.495 110.048C78.6734 110.304 78.9006 110.524 79.1638 110.693C79.4269 110.862 79.7208 110.978 80.0286 111.033C80.3364 111.089 80.6522 111.083 80.9578 111.016L81.1571 110.972C81.4655 110.905 81.7576 110.777 82.0163 110.596C82.275 110.416 82.4951 110.185 82.6639 109.918C82.8327 109.652 82.9468 109.354 82.9995 109.043C83.0523 108.732 83.0426 108.413 82.9711 108.105L80.5453 97.6805C80.4012 97.0729 80.0242 96.5462 79.4955 96.2139C78.9668 95.8816 78.3288 95.7703 77.7188 95.9039V95.9039Z" fill="#FF8800"/>
<path d="M78.4545 97.3101H78.4264C78.2396 97.3507 78.0625 97.4277 77.9054 97.5367C77.7483 97.6457 77.6143 97.7846 77.5109 97.9455C77.4075 98.1063 77.3368 98.286 77.3029 98.4741C77.269 98.6623 77.2724 98.8553 77.3131 99.0422L78.7006 105.431C78.7831 105.808 79.0119 106.137 79.3367 106.345C79.6614 106.554 80.0557 106.624 80.4327 106.542L80.5545 106.516C80.7429 106.475 80.9213 106.397 81.0793 106.287C81.2373 106.176 81.3718 106.036 81.4749 105.873C81.578 105.71 81.6478 105.528 81.6801 105.338C81.7124 105.148 81.7066 104.953 81.6631 104.766L80.1795 98.3976C80.0923 98.0262 79.8626 97.704 79.5398 97.5005C79.2171 97.297 78.8272 97.2287 78.4545 97.3101V97.3101Z" fill="#FFAA00"/>
<path d="M97.9685 73.9219L97.9216 73.9359C97.626 74.0402 97.3538 74.2018 97.1208 74.4116C96.8878 74.6213 96.6985 74.8751 96.5639 75.1582C96.4293 75.4414 96.352 75.7483 96.3364 76.0615C96.3209 76.3746 96.3673 76.6877 96.4732 76.9828L100.043 87.0727C100.147 87.3682 100.309 87.6402 100.519 87.8731C100.729 88.106 100.982 88.2953 101.265 88.4301C101.548 88.5648 101.855 88.6424 102.168 88.6585C102.481 88.6745 102.794 88.6286 103.09 88.5234L103.284 88.4531C103.582 88.3476 103.855 88.1841 104.089 87.972C104.323 87.7599 104.512 87.5035 104.646 87.2176C104.78 86.9318 104.856 86.6222 104.869 86.3068C104.882 85.9914 104.833 85.6766 104.723 85.3805L101.001 75.3445C100.786 74.7554 100.346 74.2753 99.7778 74.0089C99.2098 73.7424 98.5595 73.7112 97.9685 73.9219V73.9219Z" fill="#FF5900"/>
<path d="M98.8731 75.2344L98.8449 75.2461C98.4815 75.375 98.184 75.6429 98.0179 75.9909C97.8518 76.339 97.8306 76.7387 97.959 77.1023L100.141 83.2641C100.205 83.4445 100.303 83.6106 100.431 83.7528C100.559 83.8951 100.714 84.0107 100.886 84.093C101.059 84.1753 101.246 84.2227 101.437 84.2325C101.628 84.2423 101.819 84.2142 102 84.15L102.117 84.1102C102.298 84.0457 102.465 83.9459 102.608 83.8165C102.751 83.6871 102.866 83.5306 102.948 83.3562C103.03 83.1818 103.076 82.9929 103.084 82.8005C103.092 82.608 103.062 82.4159 102.996 82.2352L100.722 76.1039C100.59 75.7451 100.322 75.4528 99.9759 75.2901C99.6299 75.1273 99.2337 75.1073 98.8731 75.2344V75.2344Z" fill="#FF8800"/>
<path d="M69.8929 35.0766L69.8483 35.0906C69.5516 35.1896 69.2772 35.3462 69.041 35.5512C68.8047 35.7563 68.6112 36.006 68.4714 36.2859C68.3317 36.5658 68.2485 36.8705 68.2266 37.1826C68.2046 37.4946 68.2444 37.808 68.3436 38.1047L71.7327 48.2555C71.8315 48.5521 71.9877 48.8264 72.1926 49.0627C72.3975 49.2989 72.6469 49.4924 72.9266 49.6322C73.2063 49.7719 73.5109 49.8552 73.8228 49.8771C74.1347 49.8991 74.4479 49.8593 74.7444 49.7602L74.9389 49.6945C75.2386 49.5948 75.5155 49.4364 75.7533 49.2286C75.9911 49.0208 76.1852 48.7677 76.3241 48.484C76.4631 48.2004 76.5442 47.892 76.5627 47.5767C76.5812 47.2614 76.5368 46.9456 76.4319 46.6477L72.8905 36.5484C72.6833 35.9593 72.2531 35.475 71.6925 35.1998C71.1319 34.9245 70.4857 34.8803 69.8929 35.0766Z" fill="#FF8800"/>
<path d="M70.781 36.3961H70.7553C70.5738 36.4562 70.4061 36.5515 70.2615 36.6766C70.117 36.8016 69.9986 36.954 69.913 37.1249C69.8275 37.2958 69.7765 37.4819 69.7629 37.6725C69.7494 37.8632 69.7736 38.0546 69.8342 38.2359L71.906 44.4375C71.9664 44.6187 72.0619 44.7862 72.1871 44.9305C72.3122 45.0748 72.4646 45.1929 72.6355 45.2783C72.8064 45.3636 72.9924 45.4144 73.1829 45.4278C73.3735 45.4412 73.5648 45.4168 73.7459 45.3562L73.8654 45.3164C74.0482 45.2552 74.2171 45.1583 74.3621 45.0312C74.5072 44.9042 74.6256 44.7497 74.7104 44.5765C74.7952 44.4034 74.8448 44.2152 74.8563 44.0227C74.8677 43.8302 74.8408 43.6374 74.7771 43.4554L72.6162 37.2843C72.4876 36.9254 72.2233 36.6313 71.8801 36.4652C71.537 36.2991 71.1423 36.2743 70.781 36.3961Z" fill="#FFAA00"/>
<path d="M53.6714 67.7086C51.6738 68.3534 49.9669 69.681 48.8504 71.4586C47.7793 73.957 51.3488 77.1726 54.2058 76.9922C54.2058 76.9922 53.3129 77.707 55.455 78.4218C57.5972 79.1367 58.6683 75.9211 58.6683 75.9211C59.4215 75.9805 60.1735 75.7929 60.8105 75.3867C62.2402 74.6695 63.3113 65.3906 53.6714 67.7086Z" fill="#42FF4C"/>
<path d="M54.4664 68.4937C53.0429 68.9533 51.8266 69.8992 51.0305 71.1656C50.2664 72.9469 52.8117 75.2367 54.8484 75.1102C54.8484 75.1102 54.2109 75.6187 55.739 76.1273C57.2672 76.6359 58.0289 74.3461 58.0289 74.3461C58.5654 74.3868 59.1007 74.2528 59.5547 73.9641C60.5742 73.4555 61.3359 66.8391 54.4664 68.4937Z" fill="#21FF2D"/>
<path d="M97.5396 108.78C99.436 109.68 101.589 109.882 103.619 109.352C106.111 108.267 105.712 103.479 103.509 101.653C103.509 101.653 104.648 101.745 103.577 99.757C102.506 97.7695 99.5248 99.375 99.5248 99.375C99.0158 98.8172 98.3399 98.4389 97.5982 98.2969C96.0677 97.8375 88.9263 103.866 97.5396 108.78Z" fill="#42FF4C"/>
<path d="M97.4997 107.665C98.8517 108.305 100.386 108.449 101.833 108.073C103.61 107.297 103.326 103.884 101.756 102.584C101.756 102.584 102.567 102.649 101.805 101.231C101.044 99.8133 98.9154 100.959 98.9154 100.959C98.5524 100.562 98.0707 100.292 97.5419 100.191C96.4498 99.8648 91.3591 104.161 97.4997 107.665Z" fill="#21FF2D"/>
<path d="M85.9826 37.1812C83.9857 37.8264 82.2797 39.154 81.1638 40.9312C80.0927 43.432 83.6623 46.6453 86.5193 46.4672C86.5193 46.4672 85.6263 47.1703 87.7685 47.8945C89.9107 48.6187 90.9818 45.3961 90.9818 45.3961C91.7351 45.4534 92.4867 45.2651 93.124 44.8594C94.5513 44.1422 95.6248 34.8609 85.9826 37.1812Z" fill="#42FF4C"/>
<path d="M86.777 37.9687C85.354 38.4281 84.1384 39.3741 83.3435 40.6406C82.5794 42.4219 85.1247 44.7117 87.1591 44.5851C87.1591 44.5851 86.5239 45.0937 88.0497 45.6023C89.5755 46.1109 90.3419 43.8211 90.3419 43.8211C90.8785 43.8636 91.4143 43.7294 91.8677 43.4391C92.8849 42.9281 93.6489 36.3117 86.777 37.9687Z" fill="#21FF2D"/>
</svg>
