<svg width="126" height="169" viewBox="0 0 126 169" fill="none" xmlns="http://www.w3.org/2000/svg">
<g clip-path="url(#clip0_171_33)">
<path d="M37.1815 7.77724C37.1815 7.77724 37.1225 -0.226611 42.0662 6.73199L50.2526 23.403L55.7092 23.0169L60.6628 27.4252L63.5853 29.2165L76.9075 25.5612C76.9075 25.5612 87.044 22.8561 83.3855 31.6938C83.3855 31.6938 74.895 38.0186 72.8954 46.2812C72.8954 46.2812 73.6262 57.0795 61.8684 48.7623L56.942 34.7998L50.4542 31.8497L45.6331 32.5508L33.2436 35.6205L26.5074 30.6328L30.8158 23.5543L33.8986 13.2456L35.1236 8.49096L37.1815 7.77724Z" fill="#F49FB4"/>
<path d="M48.7633 62.0268C48.7633 62.0268 35.452 46.4525 27.1784 65.0933C27.1784 65.0933 24.9192 71.5687 31.4596 76.4472L38.3776 78.6368L40.6526 73.7998C40.6547 73.7957 44.9217 63.8537 48.7633 62.0268Z" fill="#E27D0E"/>
<path d="M58.3563 68.5216C58.3563 68.5216 48.9738 54.6498 40.5906 72.9689L40.324 79.6173L51.4183 86.5029L58.0644 87.5104L64.9117 90.9603L71.9413 88.7592C71.9413 88.7592 81.7619 79.4624 75.3443 68.5736C75.3443 68.5736 65.6518 61.2186 60.045 67.7108L58.3563 68.5216Z" fill="#D53127"/>
<path d="M24.1055 49.6714C24.1055 49.6714 33.5654 51.8875 24.6654 61.7527L15.0856 65.9871L12.9399 62.6539L14.7372 58.4541L17.9697 56.4667L22.2285 52.6605L23.0022 49.4343L24.1055 49.6714Z" fill="#FDDA42"/>
<path d="M22.6131 36.6919C22.6131 36.6919 27.4263 32.4178 35.0803 42.3358C35.0803 42.3358 27.3795 47.705 22.6131 36.6919Z" fill="#2BB85A"/>
<path d="M47.7156 53.1328C47.7156 53.1328 52.5288 48.8588 60.1828 58.7767C60.1828 58.7767 52.482 64.1459 47.7156 53.1328Z" fill="#2BB85A"/>
<path d="M-6.70615 43.1824C-6.02631 42.6732 5.02554 38.8878 5.02554 38.8878L12.5091 35.6403L19.1233 40.2478L17.6172 46.8256L15.0023 54.9716L14.219 62.0128L9.72894 58.8936L-0.618838 52.2065L-2.99442 48.3027L-8.32278 44.2856L-6.70615 43.1824Z" fill="#8BB73E"/>
<path d="M-15.1874 39.761C-15.1874 39.761 -2.87812 14.4896 33.8946 13.2435L31.2338 22.7458C31.2338 22.7458 1.72521 22.8705 -8.74432 43.0072L-15.1874 39.761Z" fill="#B25313"/>
<path d="M77.4925 101.025L70.0407 108.223C70.0407 108.223 -4.80323 85.6317 -20.5764 58.9094L-17.8838 47.8711C-17.8838 47.8711 -17.7279 52.8407 2.31713 66.0231C2.31713 66.0231 10.7328 75.2797 21.487 80.1023C21.487 80.1023 30.5819 86.3202 36.9908 87.1036C36.9908 87.1036 46.5619 95.9651 60.2704 97.6621C60.2704 97.6621 66.5449 100.081 73.0268 99.5168L77.4925 101.025Z" fill="#EA8743"/>
<path d="M-14.089 42.2271C-14.089 42.2271 -18.2747 46.7389 -15.7127 51.7764C-15.7127 51.7764 -11.9187 60.7058 1.2269 63.5823C1.2269 63.5823 11.9462 77.7567 21.9779 77.946C21.9779 77.946 29.5316 86.5384 38.8657 86.2142C38.8657 86.2142 49.9447 98.0982 59.7616 96.1831C59.7616 96.1831 65.8011 100.344 72.9106 97.9431C72.9106 97.9431 72.8353 101.411 80.7103 98.4449C80.7103 98.4449 87.6238 87.0981 66.2785 88.9424L54.9145 86.9688C54.9145 86.9688 46.4308 80.855 35.8605 79.3596C35.8605 79.3596 27.6125 68.5049 16.2196 66.4331C16.2196 66.4331 5.45748 51.9185 -2.9892 50.056L-13.7743 42.3908" fill="#7A4B31"/>
<path d="M70.8022 108.392L52.4734 103.835L49.2692 110.194L65.6317 114.174L57.8316 115.146L56.811 121.32C56.0086 120.963 55.102 120.553 53.9765 120.049L57.3676 113.318L38.2793 106.68L35.572 111.607C35.5345 111.588 35.4949 111.574 35.4532 111.553L37.7273 107.039L19.9628 97.4512L16.8267 102.67C16.6892 102.6 16.5454 102.533 16.4079 102.464L18.521 97.3571L4.74677 89.8372L5.21212 89.1728L11.1125 92.4487L11.1083 92.457L27.3436 101.17L32.3931 95.3689L15.6894 86.953L13.5612 89.5073L15.1768 86.6948L1.46586 77.6077L-2.84674 84.0204L-4.0715 83.2361L-0.0974238 76.2818L-10.6037 68.8617L-14.9906 75.0174L-17.8776 72.5021L-14.9705 74.5834L-12.1248 68.0953L-19.916 61.4055L-23.4835 68.4863L-21.2366 70.0939L-24.1538 79.5245L-23.8126 79.8532C-24.4766 79.273 -25.0467 78.7245 -25.423 78.2475L-26.8802 90.0075C-26.8802 90.0075 -22.9061 93.2691 -16.3025 97.9288C-20.9299 95.3622 -24.9232 92.9269 -27.901 90.7682L-29.7158 100.697L-32.2957 111.729C-14.4314 130.298 37.1518 147.78 37.1518 147.78L43.2063 139.559L52.5796 129.822C52.5796 129.822 51.9522 129.564 50.8413 129.103L59.4579 122.497C59.4579 122.497 58.5304 122.087 57.009 121.404L60.4203 121.012L65.6484 114.172L66.4304 114.363L70.8022 108.392Z" fill="#E5C45A"/>
<path d="M48.0811 109.596L51.0785 102.599L34.0911 96.2193L28.6998 101.848L48.0811 109.596Z" fill="#E5C45A"/>
<path d="M80.953 38.8656C80.953 38.8656 74.6675 38.6774 73.6259 46.2312C73.6259 46.2312 86.6411 65.1313 79.6881 90.7552L84.0082 94.8443C84.0082 94.8443 101.683 63.5599 80.953 38.8656Z" fill="#B25313"/>
<path d="M81.8178 37.2842C82.0753 37.0116 82.3455 36.714 82.5674 36.481C84.8748 34.017 85.4967 33.3532 85.882 31.572C86.5657 28.4311 86.099 26.1423 84.5003 24.7829C81.8859 22.546 77.5359 24.1272 77.0511 24.3114C74.3201 25.3758 65.7635 26.7187 62.6922 27.1517C62.5523 27.1701 62.483 27.2972 62.3576 27.349C61.958 25.6322 60.9088 24.0846 59.2126 23.23L57.1872 22.2095C55.3784 21.2982 53.3723 21.4632 51.6897 22.3138C50.1705 19.5209 46.245 11.9935 45.4876 9.19255C45.3493 8.68916 44.0689 4.27122 40.6716 3.48446C38.6236 3.00652 36.5127 3.99139 34.3953 6.41001C33.2874 7.67552 33.0487 8.61603 32.5478 11.3422C11.7763 11.1868 -7.41695 22.4814 -16.8634 40.432C-17.2419 40.675 -17.5394 41.0477 -17.6536 41.5232L-21.9896 59.0178L-34.2611 111.471C-34.2696 111.508 -34.2446 111.542 -34.2489 111.581C-34.3105 111.942 -34.2908 112.307 -34.1374 112.646C-34.1208 112.675 -34.0979 112.692 -34.0834 112.725C-33.9921 112.897 -33.8945 113.066 -33.7468 113.209C-29.8783 116.898 -24.8849 120.584 -18.2982 124.624C-18.2732 124.636 -18.2586 124.659 -18.2336 124.672C-18.2211 124.678 -18.2107 124.678 -18.2024 124.682C-13.1133 127.795 -7.05036 131.132 0.292861 134.853C0.309531 134.861 0.317834 134.876 0.330337 134.882C0.342839 134.888 0.359544 134.886 0.376215 134.895C0.717957 135.067 1.01799 135.229 1.36806 135.405C16.0171 142.786 26.7913 147.226 35.2746 149.389C35.6646 149.487 36.0467 149.423 36.3936 149.284C36.986 149.374 37.5999 149.265 38.025 148.784L74.9992 106.949L75.0034 106.94L84.1319 96.746C84.1696 96.7023 84.1802 96.6501 84.2137 96.6043C84.2451 96.5627 84.3077 96.5629 84.3371 96.5149C85.5491 94.6487 86.5183 93.005 87.2154 91.6214C95.5872 75.0156 93.4357 53.8134 81.8178 37.2842ZM78.2149 27.2806C79.406 26.8147 81.5546 26.4602 82.433 27.2059C82.689 27.4237 82.8402 27.8082 82.9202 28.2822C74.7053 31.135 69.0736 30.7693 65.7641 29.9118C69.3513 29.3572 75.6198 28.2932 78.2149 27.2806ZM58.8692 35.1854C59.5622 35.8324 60.6323 36.706 62.1493 37.4703C63.9413 38.3732 66.2829 39.0774 69.1133 38.9254C69.9942 38.878 70.6664 38.1246 70.6232 37.2458C70.5758 36.3649 69.8161 35.6948 68.9457 35.7422C65.0131 35.9556 62.3163 34.0273 61.1404 32.9593C61.1866 32.878 61.2681 32.8303 61.3101 32.7469L61.7595 31.8551C64.6311 33.2705 71.3619 35.2404 82.4483 31.7702C82.1672 32.2348 81.5976 32.857 80.2429 34.3013C79.5247 35.0629 78.6264 36.0264 77.481 37.2835L76.654 38.1575C74.7697 40.1031 72.1924 42.7707 71.3242 47.5432L71.2498 47.9916C71.0755 49.0221 70.8354 50.4322 70.083 50.7742C69.6295 50.9794 68.1533 51.192 64.2954 48.8406C64.085 48.7189 59.096 45.6358 59.0195 35.8725C59.016 35.6304 58.9541 35.4111 58.8546 35.2042C58.8525 35.1979 58.8609 35.1917 58.8692 35.1854ZM51.7754 26.3649C52.5103 24.9062 54.2965 24.3169 55.7551 25.0518L57.7806 26.0723C59.2434 26.8093 59.8327 28.5955 59.0978 30.0542L58.4637 31.3128C57.7288 32.7715 55.9426 33.3608 54.4798 32.6238L52.4543 31.6033C50.9956 30.8684 50.4063 29.0822 51.1412 27.6235L51.7754 26.3649ZM48.8161 33.1407C48.9165 33.0659 48.9836 32.9638 49.0611 32.8722C49.5872 33.5083 50.2367 34.055 51.0202 34.4497L53.0456 35.4702C53.9416 35.9217 54.8887 36.0644 55.832 36.0589C55.9928 47.6361 62.4237 51.4458 62.6529 51.5717C63.3549 52.0037 64.0237 52.3773 64.653 52.6943C67.5203 54.139 69.6919 54.4441 71.3994 53.6688C73.2511 52.825 73.8786 51.0091 74.1941 49.5221C80.6088 61.3396 81.9378 75.1304 77.8682 88.0511C77.0908 87.7065 76.2423 87.4096 75.2955 87.1938C76.5568 84.9082 77.9618 82.0158 78.6292 78.7621C79.1123 76.3927 79.0687 74.2805 78.4946 72.2982C77.6334 69.3299 75.7372 66.9637 72.6877 65.0615C71.617 64.3966 70.4851 63.9465 69.2984 63.7092C66.1051 63.0775 63.248 63.7491 60.736 65.5613C60.8385 64.7977 61.058 63.9991 61.4005 63.2154C62.0143 61.8107 62.9508 60.6051 63.9756 59.9196C64.7828 59.3752 65.5639 59.2044 66.1183 59.4419C66.927 59.7971 67.8673 59.4243 68.2183 58.6136C68.5714 57.8091 68.3194 56.9505 67.3899 56.5136C65.8121 55.8284 63.9184 56.1023 62.1888 57.274C62.1428 57.3031 62.0989 57.3385 62.0529 57.3675L61.9866 57.2192C61.2097 55.3385 60.1852 53.8974 58.8633 52.8081C57.1375 51.3899 54.9985 50.6571 52.3357 50.5696C51.2047 50.5328 50.0672 50.5606 48.9255 50.5968L47.7066 50.6306C47.2954 50.6377 46.8863 50.6615 46.4709 50.6873L45.8864 50.7169C45.4147 50.7405 44.9799 50.9708 44.6928 51.3435C44.4099 51.7183 44.3041 52.198 44.4071 52.6574L44.5144 53.0459C45.3571 55.2211 46.4537 56.9859 47.8767 58.4449C50.7187 61.3608 54.0998 62.6567 57.9035 62.2843C58.0454 62.2723 58.1937 62.2477 58.3608 62.2064C57.9234 63.2716 57.6592 64.3769 57.5515 65.4513L56.9602 64.9967C56.371 64.5378 55.7818 64.0789 55.1653 63.6638C53.5033 62.5234 51.7768 62.0193 50.0192 62.1371C49.8898 62.145 49.7623 62.201 49.635 62.2152C48.183 59.3098 45.7125 57.0775 42.6126 55.9494C42.5369 55.4462 42.2816 54.9884 41.7666 54.8282C41.2099 54.6574 40.7019 54.9293 40.3604 55.3581C37.5945 54.8843 34.7696 55.2742 32.2424 56.598C29.1967 58.1936 26.9533 60.8831 25.929 64.1608C25.5875 65.2533 25.4129 66.3881 25.3677 67.5254C24.0471 66.7033 22.6469 65.956 21.1356 65.3566C24.3959 63.8743 27.0091 61.7369 28.5051 59.1306C29.7095 57.0306 30.0753 54.8007 29.5131 53.0125C29.1803 51.9618 27.9762 50.566 26.7713 50.1157C26.6016 49.6331 26.4671 48.5829 26.41 48.157C26.4018 48.1006 26.3957 48.0401 26.3854 47.9879C26.7118 47.7447 27.1263 47.3056 27.0701 46.5979C27.04 46.2013 26.6825 45.7181 26.3035 45.4331C25.2043 44.5449 22.8689 45.2494 22.3527 45.4649C21.2139 45.931 20.8966 46.6437 20.8365 47.157C20.7959 47.497 20.8232 48.1065 21.3891 48.6947C21.5585 49.2608 21.7929 50.4031 21.4463 51.1429C20.497 53.0788 19.1385 54.4166 17.27 55.2833C17.3281 54.7325 17.3777 54.1879 17.4504 53.6288C17.5787 52.6379 17.6984 51.7054 17.9806 50.8756C18.4313 49.5455 18.9445 48.2364 19.4682 46.9274L20.1034 45.314C20.9175 43.2003 20.8213 41.2236 19.7772 39.365C19.5031 38.9343 19.1912 38.5472 18.873 38.1831C24.2223 31.9426 21.3026 27.169 21.1634 26.9578C20.6794 26.2176 19.7137 26.0289 18.9798 26.4899C18.2479 26.9573 18.0299 27.9396 18.4826 28.6798C18.5615 28.8136 20.1867 31.7383 16.5045 36.07C15.9234 35.6676 15.5192 35.4535 15.5108 35.4597C14.3423 34.709 13.0431 34.3836 11.6528 34.4879C10.1185 34.6084 8.56432 35.0899 7.02363 35.9283C4.97913 37.0407 2.82514 37.7896 0.624316 38.1544C-0.810172 38.3879 -2.28672 38.7256 -3.73264 39.2826C4.7973 30.3075 16.472 24.8606 28.8542 24.191C28.5503 24.6075 28.2902 25.0199 27.9008 25.4403L27.6181 25.7316C26.5336 26.8574 24.7247 28.7364 25.2514 31.207C25.5065 32.3911 26.2922 33.4558 27.5455 34.453C26.1772 34.2026 24.7453 34.2545 23.16 34.6942L22.6127 34.8365C22.2096 34.9417 21.7543 35.0572 21.4869 35.142C21.0461 35.2805 20.6965 35.6217 20.5074 36.0489C20.3245 36.4741 20.3397 36.9729 20.5367 37.3909C20.6238 37.5707 20.7437 37.9446 20.8885 38.352C21.2464 39.3841 21.4803 40.0402 21.7503 40.4584C22.795 42.1082 24.1457 43.3479 25.7919 44.1773C26.9755 44.7736 28.31 45.1534 29.7892 45.3186C31.5625 45.5118 33.36 45.3253 35.2714 44.7468C35.3675 44.7221 35.5765 44.6288 35.6663 44.5853C36.0844 44.3778 36.3902 43.9989 36.5085 43.5464C36.6247 43.0981 36.5385 42.6157 36.2704 42.235L34.7534 40.1225C34.1756 39.3298 33.5937 38.5349 32.9636 37.7838C32.7266 37.4971 32.4748 37.2605 32.2293 37.0114C33.0338 37.3436 39.7341 39.7579 48.8161 33.1407ZM56.8198 89.0573C60.2128 89.8733 64.8668 91.9307 69.5361 97.1625C67.7214 97.5285 65.0566 97.4243 62.5142 95.5111C61.7036 94.4442 59.687 91.9023 56.8198 89.0573ZM57.6148 95.2477C55.3595 94.9946 52.9152 94.4319 51.3431 93.9638C47.027 92.6567 43.3015 89.9801 40.2812 86.0285C39.9829 85.293 39.2348 83.5418 37.9894 81.3258C40.5103 82.0785 42.3585 83.0672 42.4856 83.1364C45.3534 84.4037 47.9984 86.2066 50.3404 88.1129C50.3987 88.1632 50.4549 88.2176 50.5174 88.2596C53.5027 90.7043 55.9657 93.3143 57.6148 95.2477ZM52.1493 84.8961C49.7342 82.9791 47.0287 81.1823 44.113 79.8753C44.0379 79.8375 43.2816 79.4303 42.1061 78.932C41.945 77.0115 42.0028 75.1542 42.4255 73.4233C43.2308 70.1346 44.824 67.8229 47.2995 66.3529C48.3804 65.7113 49.3143 65.3823 50.2328 65.3225C51.2765 65.2527 52.2961 65.5626 53.3624 66.2984C53.9247 66.6862 54.4619 67.1031 55.0032 67.5222L55.8819 68.1948C56.1692 68.4128 56.5814 68.7458 57.002 69.0831C57.5037 69.4875 58.0221 69.9002 58.3761 70.1622C59.0258 70.6254 59.9276 70.5572 60.4761 69.987C60.495 69.9704 60.5138 69.9537 60.5327 69.9371C60.7441 69.7353 61.1334 69.3671 61.1836 69.3193C63.3275 67.0865 65.7781 66.2779 68.6751 66.8545C69.4844 67.0114 70.2744 67.331 71.0014 67.7861C73.3844 69.2689 74.792 70.9867 75.4302 73.1946C75.8535 74.6672 75.8799 76.2847 75.5027 78.1327C74.8629 81.2487 73.454 84.0139 72.151 86.3097L71.8677 86.7993C69.6285 86.7528 67.0312 87.1059 64.0419 88.0297C58.6166 84.9932 54.0049 84.8121 52.1493 84.8961ZM59.1272 58.6421C58.5318 58.849 57.9113 59.0641 57.596 59.1091C54.7589 59.3884 52.3242 58.4439 50.1626 56.2209C49.476 55.5196 48.8837 54.7143 48.3751 53.8049L49.0159 53.7881C50.0824 53.7559 51.1532 53.7257 52.2174 53.7603C54.1853 53.8269 55.6551 54.3114 56.8313 55.275C57.7557 56.0333 58.4559 57.0393 59.036 58.4394L59.1272 58.6421ZM13.6371 66.6839C13.876 67.0499 16.8215 71.5752 19.3521 75.9907C14.5559 73.3443 7.38095 68.5118 2.20885 61.1768C0.932311 58.8981 -0.0648918 56.0442 -0.867271 53.6333C2.6571 55.8688 8.31256 60.0664 13.6371 66.6839ZM-2.84412 48.3263C-2.88996 48.3032 -2.94427 48.3176 -2.99431 48.3028C-3.81808 46.7434 -4.76774 45.4027 -5.84567 44.3789C-5.5422 44.0981 -5.31794 43.7878 -4.96859 43.5196C-3.2533 42.2309 -1.2857 41.6964 1.14062 41.299C3.69432 40.8769 6.18258 40.0142 8.54484 38.7275C9.68833 38.107 10.8143 37.7494 11.8956 37.6671C12.597 37.6129 13.1914 37.7504 13.9079 38.2159C13.9288 38.2264 15.9769 39.3263 17.0362 40.9887C17.5634 41.9336 17.5937 42.9417 17.1225 44.157L16.4957 45.7433C15.9573 47.1024 15.4189 48.4615 14.9492 49.85C14.5701 50.9758 14.4205 52.1127 14.2773 53.2268C14.1704 54.0612 14.0844 54.8958 14.0025 55.7324C13.9163 56.6087 13.8302 57.485 13.7085 58.3591C13.6167 59.0287 13.335 59.6915 12.951 60.3811C5.03968 52.0319 -2.50651 48.4859 -2.84412 48.3263ZM24.2573 51.2058C24.5452 51.9204 24.9943 52.4707 25.7263 52.6357C26.0411 52.7577 26.7902 53.48 26.9018 53.8289C27.2346 54.8901 26.9568 56.323 26.1322 57.7626C25.3286 59.1606 22.7931 62.5025 16.6317 64.0593C16.446 64.0232 16.2667 63.9747 16.079 63.9428C15.765 63.5599 15.4488 63.2229 15.1369 62.8568C16.0698 61.4822 16.6874 60.163 16.8732 58.7882C16.8946 58.6213 16.9076 58.4503 16.929 58.2834C20.1191 57.2413 22.4311 55.3179 23.9054 52.3087C24.0776 51.9566 24.1894 51.5792 24.2573 51.2058ZM19.1038 68.4767C27.8803 71.6758 33.2889 80.1385 35.6333 84.6849C27.9224 83.1461 25.7878 80.2783 24.3147 77.4355C22.7939 74.5111 20.7175 71.0612 19.1038 68.4767ZM39.3287 72.6625C38.9292 74.2954 38.8279 76.0211 38.8622 77.7784C37.7508 77.4536 36.5308 77.1786 35.2353 77.0118C33.421 74.4831 31.1084 71.8339 28.2479 69.5461C28.0125 68.0219 28.0799 66.4568 28.5394 64.9744C29.3508 62.389 31.1125 60.2719 33.5101 59.0187C35.9098 57.7613 38.6529 57.513 41.2404 58.3202C43.7508 59.1147 45.7429 60.7925 46.9821 62.9897C46.5495 63.1846 46.1275 63.3377 45.6738 63.6056C42.4184 65.5344 40.3453 68.4979 39.3287 72.6625ZM27.1874 37.5908C28.4053 37.87 29.4696 38.5787 30.5155 39.832C31.104 40.5308 31.6402 41.2713 32.1785 42.0076L32.2679 42.131C31.5351 42.2164 30.8276 42.2205 30.1349 42.1432C27.5792 41.8641 25.7147 40.7523 24.454 38.7637C24.3377 38.5588 24.2012 38.166 24.0584 37.7544C25.2511 37.4304 26.2489 37.3792 27.1874 37.5908ZM39.9504 6.58563C41.0453 6.83942 42.0703 8.78765 42.4046 10.0221C43.1228 12.6727 45.9337 18.2223 47.6268 21.4582C44.6052 19.2722 40.4301 14.8642 38.9105 6.7828C39.295 6.61075 39.6563 6.51586 39.9504 6.58563ZM48.5216 25.7288L48.2906 26.1873C48.2381 26.2915 48.2482 26.4063 48.1999 26.5126C46.8004 26.1994 43.4291 25.1018 41.2968 21.5035C40.8462 20.7383 39.8703 20.4869 39.1134 20.9417C38.3544 21.3901 38.1031 22.3661 38.5516 23.125C40.1648 25.8661 42.3449 27.4922 44.2537 28.4539C45.7415 29.2035 47.0136 29.5309 47.7895 29.6815C47.8139 29.8819 47.8216 30.0844 47.8669 30.2849C47.5434 30.2839 47.2156 30.3538 46.9332 30.5617C39.0392 36.3143 33.5946 34.1355 33.3362 34.0262C29.1757 32.3376 28.4785 31.0248 28.3735 30.5382C28.2007 29.73 29.1931 28.6938 29.9196 27.9467L30.2294 27.6221C33.544 24.0823 34.1562 20.4298 34.6027 17.7598L34.8088 16.5625C35.1374 14.8939 35.3751 13.5923 35.564 12.564C35.9036 10.6972 36.0648 9.86912 36.2604 9.35631C38.9 19.7368 45.6085 24.2507 48.5216 25.7288ZM-13.2342 40.4577C-4.18014 24.572 13.1579 14.5949 31.9516 14.5377C31.8647 14.9903 31.784 15.42 31.6802 15.9477L31.455 17.2347C31.2616 18.3861 31.0324 19.6084 30.6154 20.8614C14.7116 21.1049 -0.275968 28.8644 -9.88606 41.6325C-11.1448 41.0402 -12.2874 40.684 -13.2342 40.4577ZM-5.63858 51.0412C-5.39416 51.6451 -5.13556 52.3868 -4.86875 53.1744C-3.84564 57.7919 -2.37285 60.7287 -1.55271 62.1086C-5.57975 60.4559 -10.7293 57.3597 -12.2343 51.9873C-12.3933 51.4213 -12.6128 50.8613 -12.8551 50.2532C-13.4619 48.7195 -14.135 47.0165 -13.9338 44.0244C-11.6149 44.6284 -7.55461 46.3187 -5.63858 51.0412ZM-19.2099 63.1461C-17.4376 65.0528 -15.3817 67.0292 -12.9629 69.084L-14.8526 72.8348C-16.9338 70.9292 -18.7605 69.0787 -20.1932 67.338L-19.2099 63.1461ZM-21.2019 71.6633C-18.712 74.3548 -15.5965 77.2048 -11.8718 80.1422L-14.4209 85.2016C-17.7348 82.3719 -20.5167 79.6273 -22.4749 77.094L-21.2019 71.6633ZM35.7785 123.861C31.042 122.164 25.8312 119.967 20.0294 117.232L22.61 112.11C28.0515 114.596 33.3918 116.764 38.4683 118.522L35.7785 123.861ZM40.2118 129.146L36.7388 136.039C31.6987 134.655 26.4399 132.481 20.2192 129.54L23.5767 122.876C29.7417 125.606 35.2055 127.653 40.2118 129.146ZM36.8917 114.038C36.9441 113.965 37.0194 113.909 37.0614 113.826L39.6462 108.696C45.5267 110.963 51.1331 112.79 56.2548 114.095L53.7666 119.034C48.7067 117.979 42.9685 116.269 36.8917 114.038ZM48.2826 107.9C45.4743 106.96 42.5952 105.944 39.6269 104.772C39.6144 104.766 39.6061 104.751 39.5936 104.745C39.5644 104.73 39.531 104.734 39.4977 104.717C36.8775 103.685 34.1992 102.539 31.5043 101.343L33.5852 97.2132C39.327 99.8082 44.9382 102.092 50.2585 103.978L48.2826 107.9ZM36.2381 107.339L33.7982 112.182C33.6953 112.386 33.6446 112.601 33.6251 112.816C28.4514 110.794 23.1013 108.418 17.7688 105.757L20.5531 100.231C25.871 102.889 31.1292 105.262 36.2381 107.339ZM19.3047 110.56L16.7409 115.648C15.4447 115.016 14.1693 114.405 12.8107 113.72C9.8934 112.251 7.14725 110.773 4.47834 109.287L7.04425 104.194C9.7381 105.714 12.4863 107.208 15.3327 108.642C16.6643 109.308 17.9877 109.927 19.3047 110.56ZM28.1697 99.8513C25.9544 98.824 23.7308 97.7611 21.5095 96.642C19.1964 95.4766 16.9253 94.28 14.7042 93.067L16.8082 88.891C19.1563 90.1734 21.5567 91.435 24.0031 92.6676C26.0952 93.7217 28.1833 94.7319 30.2569 95.7087L28.1697 99.8513ZM17.315 98.5575L14.5286 104.088C10.2237 101.846 6.11108 99.5125 2.24697 97.1319L4.99556 91.6765C8.90357 94.0322 13.0371 96.3343 17.315 98.5575ZM3.88592 102.373L1.30111 107.503C-3.84881 104.512 -8.49979 101.473 -12.7186 98.3758L-10.1233 93.2247C-5.92946 96.2992 -1.20556 99.3794 3.88592 102.373ZM11.5333 91.2603C7.1874 88.7885 3.10041 86.2695 -0.677676 83.739L1.38429 79.6464C5.20628 82.1521 9.31214 84.644 13.6352 87.0886L11.5333 91.2603ZM1.89182 89.747L-0.852566 95.194C-4.77047 92.6609 -8.37736 90.1121 -11.5503 87.6042L-8.91509 82.3739C-5.62302 84.8216 -2.00754 87.2911 1.89182 89.747ZM-3.72052 81.6886C-6.78808 79.5316 -9.52805 77.3987 -12.0156 75.3145L-10.0629 71.4386C-7.50206 73.4709 -4.70343 75.5289 -1.66485 77.6085L-3.72052 81.6886ZM-25.0189 87.972L-23.4984 81.4798C-20.8217 84.4954 -17.3024 87.7056 -13.0779 90.9888L-15.6627 96.1191C-19.021 93.4917 -22.1099 90.8172 -24.8606 88.0727C-24.9105 88.0266 -24.971 88.0118 -25.0189 87.972ZM-27.8377 100.028L-25.9705 92.0388C-22.5515 95.3029 -18.7399 98.4826 -14.4794 101.591L-18.0007 108.58C-21.9719 105.738 -25.1191 102.981 -27.8377 100.028ZM-18.1456 120.442C-23.2634 117.21 -27.2384 114.22 -30.4641 111.246L-28.8232 104.235C-25.2549 107.804 -20.9785 111.171 -15.2983 114.791L-18.1456 120.442ZM-14.9768 110.678L-11.4765 103.731C-7.23841 106.655 -2.57854 109.52 2.48631 112.349L-0.831313 118.934C-6.46328 115.924 -11.1278 113.224 -14.9768 110.678ZM0.35959 130.779C-5.59156 127.728 -10.6795 124.946 -15.023 122.344L-12.1988 116.739C-7.93452 119.3 -2.81733 122.077 3.19007 125.161L0.35959 130.779ZM2.38997 120.64L5.6782 114.114C7.46384 115.071 9.28705 116.026 11.175 116.977C14.3757 118.59 17.3641 120.012 20.2547 121.348L16.9266 127.954C14.157 126.606 11.2418 125.152 8.00772 123.523C6.00518 122.519 4.18194 121.575 2.38997 120.64ZM19.7802 140.005C14.9509 137.943 9.59286 135.436 3.60818 132.432L6.43656 126.818C12.5712 129.909 17.7892 132.506 22.4952 134.616L19.7802 140.005ZM35.8409 145.756C32.1873 144.803 27.9635 143.354 23.161 141.415L25.8571 136.064C31.0116 138.217 35.6631 139.73 40.3833 140.619L35.8409 145.756ZM43.2336 137.388C42.2782 137.252 41.3269 137.107 40.3779 136.916L43.7859 130.152C45.4729 130.579 47.0977 130.922 48.6913 131.213L43.2336 137.388ZM51.5436 127.989C47.7657 127.439 43.7241 126.479 39.2727 125.046L41.9835 119.666C46.9791 121.253 51.6421 122.421 55.8452 123.123L51.5436 127.989ZM58.6976 119.888C58.32 119.839 57.9029 119.754 57.5149 119.695L59.9023 114.956C60.8304 115.157 61.7148 115.31 62.6013 115.469L58.6976 119.888ZM65.4307 112.27C61.4233 111.678 56.7978 110.57 51.7957 109.038L53.7485 105.162C58.9962 106.891 63.8779 108.196 68.283 109.046L65.4307 112.27ZM72.2831 104.519L72.281 104.523L72.2726 104.53L71.0935 105.864C59.2578 103.935 42.3467 97.8181 25.6472 89.4044C6.05536 79.5334 -10.7385 67.8427 -18.1971 58.875L-16.3334 51.3591C-16.3044 51.4364 -16.2733 51.52 -16.2423 51.5931C-16.0517 52.0758 -15.8694 52.523 -15.7456 52.9721C-14.1312 58.7393 -9.49856 62.3118 -5.24346 64.4556C-1.94273 66.1187 1.09771 66.9085 2.34697 67.1878C8.22033 73.8362 15.2052 78.0504 19.4228 80.1754C20.9773 80.9586 22.134 81.4525 22.7323 81.6965C23.9898 83.3595 25.5861 84.8274 27.9157 86.0011C30.3204 87.2127 33.517 88.1282 37.7769 88.7173C40.2592 91.8283 43.1256 94.2496 46.3847 95.8916C47.6308 96.5195 48.9398 97.0431 50.2931 97.448C52.7055 98.1775 57.4336 99.1958 60.8947 98.9226C61.3238 99.2119 61.7507 99.4949 62.1883 99.7154C66.01 101.641 69.9729 101.067 72.4155 100.118C72.6592 100.288 72.8567 100.518 73.1276 100.655C73.6944 100.94 74.3262 101.138 75.0251 101.214C75.1002 101.22 75.1817 101.193 75.2526 101.198L72.2831 104.519ZM75.4056 97.5854C74.6044 97.5161 73.8904 96.9004 72.8431 95.4216C72.8119 95.3798 72.7619 95.3546 72.7308 95.3128C71.1814 93.5132 69.6167 91.9828 68.0761 90.7468C75.8462 89.3159 79.3747 92.9226 80.6524 94.8257C77.8401 97.2339 76.2547 97.6735 75.4056 97.5854ZM83.2315 92.2582C82.6245 91.4612 81.7883 90.5696 80.6931 89.7252C85.5971 74.8891 83.8179 58.8596 75.6796 45.5676C75.5965 45.4317 75.4401 45.4103 75.3277 45.3119C76.2713 43.1693 77.6616 41.696 78.9408 40.3705L79.5982 39.6775C90.205 55.1747 92.1234 74.8068 84.3731 90.1893C84.0561 90.8186 83.67 91.5124 83.2315 92.2582Z" fill="black"/>
</g>
<defs>
<clipPath id="clip0_171_33">
<rect width="140" height="140" fill="white" transform="translate(-0.00732422 -20) rotate(26.7404)"/>
</clipPath>
</defs>
</svg>
