<svg width="120" height="120" viewBox="0 0 120 120" fill="none" xmlns="http://www.w3.org/2000/svg">
<path d="M28.125 56.25L4.53562 25.395C4.02562 24.7331 3.75 23.9231 3.75 23.0869V22.5337C3.75 20.445 5.445 18.75 7.53563 18.75C8.69625 18.75 9.795 19.2825 10.5112 20.1975L35.625 52.5L28.125 56.25Z" fill="#CF9E76"/>
<path d="M41.25 46.875L17.6606 16.02C17.1506 15.3581 16.875 14.5481 16.875 13.7119V13.1606C16.875 11.07 18.57 9.375 20.6606 9.375C21.8213 9.375 22.92 9.9075 23.6362 10.8225L48.75 43.125L41.25 46.875Z" fill="#CF9E76"/>
<path d="M41.2498 46.875L48.7498 43.125L38.0698 29.3868C36.0579 31.2937 34.2973 33.4687 32.8311 35.8631L41.2498 46.875Z" fill="#B27946"/>
<path d="M60.0001 24.375C46.9201 24.375 35.9269 33.3019 32.7788 45.3975L32.7901 45.405C34.3219 45.1444 35.8932 45 37.5001 45C46.1588 45 53.9044 48.9131 59.0644 55.0688V55.095C64.2226 48.9319 71.9588 45 80.6251 45C82.9276 45 85.1569 45.2981 87.2982 45.8194L87.3226 45.8025C84.3188 33.5025 73.2244 24.375 60.0001 24.375Z" fill="#FFEAA7"/>
<path d="M37.5001 45C46.1589 45 53.9045 48.9131 59.0645 55.0688V55.095C64.2226 48.9319 71.9589 45 80.6251 45C82.9276 45 85.157 45.2981 87.2983 45.8194L87.3226 45.8025C86.9776 44.3925 86.5145 43.0294 85.967 41.7113C84.2233 41.4131 82.4401 41.25 80.6251 41.25C72.4201 41.25 64.8114 44.4337 59.0758 49.6969C53.222 44.3006 45.5683 41.25 37.5001 41.25C36.3676 41.25 35.252 41.3287 34.1476 41.4469C33.602 42.72 33.1351 44.0344 32.7808 45.3975L32.792 45.405C34.322 45.1444 35.8933 45 37.5001 45Z" fill="#FCD770"/>
<path d="M60 31.875C51.1857 31.875 43.6632 37.4044 40.7119 45.1819C48.0619 46.0163 54.5532 49.6856 59.0644 55.0688V55.1006C63.8269 49.41 70.7944 45.6319 78.6638 45.0881L78.75 45L79.2319 45.0337C76.2394 37.3331 68.7582 31.875 60 31.875Z" fill="#FCD770"/>
<path d="M42.4613 41.67C41.775 42.7781 41.1807 43.9481 40.7119 45.1819C48.0619 46.0163 54.5532 49.6856 59.0644 55.0688V55.1006C63.8269 49.41 70.7944 45.6319 78.6638 45.0881L78.75 45L79.2319 45.0338C78.7388 43.7625 78.1107 42.5606 77.3869 41.4263C70.4307 42.1444 64.0482 45.135 59.0757 49.6988C54.4407 45.4238 48.6675 42.6506 42.4613 41.67Z" fill="#FFC729"/>
<path d="M28.1249 56.25L35.6249 52.5L28.0274 42.7275C25.348 43.5675 22.8111 44.7507 20.4692 46.2375L28.1249 56.25Z" fill="#B27946"/>
<path d="M9.9375 67.5C12.5437 54.6619 23.8931 45 37.5 45C46.1587 45 53.9044 48.9131 59.0644 55.0688L59.2969 67.7344L9.9375 67.5Z" fill="#FCD770"/>
<path d="M59.2237 63.75H11.0025C10.5712 64.9669 10.2 66.2119 9.9375 67.5H9.96188H59.2931L59.2237 63.75Z" fill="#FFC729"/>
<path d="M59.297 67.7344L59.0645 55.0688C58.2601 54.1107 57.3751 53.2275 56.4526 52.3838C52.9914 56.4 50.4957 61.2975 49.3876 66.7538L49.1982 67.6857L59.297 67.7344Z" fill="#FFC729"/>
<path d="M17.6514 67.4981L54.3751 67.5L54.8214 61.9238C51.1464 56.2519 44.762 52.5 37.5001 52.5C28.0595 52.5 20.1001 58.8431 17.6514 67.4981Z" fill="#FFEAA7"/>
<path d="M19.142 63.75C18.5326 64.9406 18.0226 66.1894 17.6514 67.4981L54.3751 67.5L54.6751 63.75H19.142Z" fill="#FCD770"/>
<path d="M3.75 67.5H116.25C116.25 94.4231 94.4231 116.25 67.5 116.25H52.5C25.5769 116.25 3.75 94.4231 3.75 67.5Z" fill="#ECC19C"/>
<path d="M49.2358 67.5H54.3752L54.8215 61.9237C54.0677 60.7594 53.1733 59.7 52.2058 58.7137C50.9308 61.2131 49.9652 63.9037 49.3877 66.7537L49.2358 67.5Z" fill="#FCD770"/>
<path d="M53.0625 67.5C55.6687 54.6619 67.0181 45 80.625 45C94.2169 45 105.557 54.6413 108.178 67.4569L53.0625 67.5Z" fill="#FCD770"/>
<path d="M53.0625 67.5L108.178 67.4569C107.917 66.1838 107.548 64.9538 107.122 63.75H54.1275C53.6963 64.9669 53.3231 66.2119 53.0625 67.5Z" fill="#FFC729"/>
<path d="M60.7764 67.4981C63.227 58.8413 71.1845 52.5 80.6251 52.5C90.0657 52.5 98.0251 58.8431 100.474 67.4981H60.7764Z" fill="#FFEAA7"/>
<path d="M3.75 67.5C3.75 70.05 3.94687 72.555 4.32562 75H103.125H106.875H115.674C116.053 72.555 116.25 70.05 116.25 67.5H3.75Z" fill="#DFB28B"/>
<path d="M60.7764 67.4963L100.472 67.4981C100.101 66.1875 99.5907 64.9388 98.9814 63.75H62.267C61.6576 64.9388 61.1476 66.1875 60.7764 67.4963Z" fill="#FCD770"/>
<path d="M109.65 65.625C106.967 55.2225 98.8969 47.1806 88.8375 44.295C87.7294 40.3875 85.8956 36.8419 83.4806 33.8044C83.9812 32.8444 84.375 31.6575 84.375 30.0094C84.375 27.0075 83.1075 25.425 82.0894 24.1519C81.2081 23.0494 80.625 22.3219 80.625 20.6344C80.625 18.9469 81.2081 18.2194 82.0894 17.1169C83.1075 15.8438 84.375 14.2575 84.375 11.2556C84.375 8.25375 83.1075 6.6675 82.0894 5.39438C81.2081 4.29188 80.625 3.5625 80.625 1.875H76.875C76.875 4.87875 78.1425 6.46313 79.1606 7.73625C80.0419 8.83875 80.625 9.56813 80.625 11.2556C80.625 12.9431 80.0419 13.6725 79.1606 14.775C78.1425 16.0481 76.875 17.6325 76.875 20.6344C76.875 23.6363 78.1425 25.2206 79.1606 26.4938C80.0419 27.5963 80.625 28.3238 80.625 30.0094C80.625 30.2456 80.6006 30.4444 80.5781 30.6469C76.4006 26.7131 71.1169 24.0056 65.2969 22.9725C65.4844 22.3031 65.625 21.5569 65.625 20.6363C65.625 17.6344 64.3575 16.05 63.3394 14.7769C62.4581 13.6725 61.875 12.9431 61.875 11.2556C61.875 9.56813 62.4581 8.83875 63.3394 7.73625C64.3575 6.46313 65.625 4.87875 65.625 1.875H61.875C61.875 3.5625 61.2919 4.29188 60.4106 5.39438C59.3925 6.6675 58.125 8.25188 58.125 11.2556C58.125 14.2594 59.3925 15.8438 60.4106 17.1169C61.2919 18.2194 61.875 18.9469 61.875 20.6344C61.875 21.4594 61.7213 22.0481 61.4813 22.5619C60.9881 22.5394 60.4988 22.5 60 22.5C56.0531 22.5 52.26 23.2913 48.765 24.705C48.6206 24.5175 48.4763 24.3225 48.3394 24.1519C47.4581 23.0494 46.8769 22.3219 46.8769 20.6363C46.8769 18.9488 47.46 18.2213 48.3412 17.1188C49.3575 15.8438 50.625 14.2575 50.625 11.2556C50.625 8.25375 49.3575 6.6675 48.3394 5.39438C47.4581 4.29188 46.875 3.5625 46.875 1.875H43.125C43.125 4.87875 44.3925 6.46313 45.4106 7.73625C46.2919 8.83875 46.875 9.56813 46.875 11.2556C46.875 12.9431 46.2919 13.6725 45.4106 14.775C44.3925 16.0481 43.125 17.6325 43.125 20.6344C43.125 23.535 44.3063 25.1081 45.3038 26.3588C43.6781 27.2719 42.15 28.3406 40.725 29.535L25.1119 9.66375C24.03 8.2875 22.4081 7.5 20.6606 7.5C17.5388 7.5 15 10.0388 15 13.1606V13.7138C15 14.955 15.4181 16.1794 16.1738 17.1656L33.1238 39.2025C32.4188 40.6294 31.8225 42.1238 31.3444 43.68L11.9869 19.0388C10.905 17.6625 9.28313 16.875 7.53563 16.875C4.41375 16.875 1.875 19.4138 1.875 22.5356V23.0888C1.875 24.33 2.29313 25.5544 3.04875 26.5406L20.1131 48.7256C14.4881 52.7363 10.2731 58.65 8.47313 65.6269H1.875V67.5019C1.875 95.4169 24.585 118.127 52.5 118.127H67.5C95.415 118.127 118.125 95.4169 118.125 67.5019V65.6269H109.65V65.625ZM105.787 65.625H101.829C98.6794 56.7281 90.165 50.625 80.625 50.625C71.085 50.625 62.5706 56.7281 59.4206 65.625H55.4625C58.7325 54.6338 68.9681 46.875 80.625 46.875C92.2763 46.875 102.516 54.6356 105.787 65.625ZM97.8 65.625H63.45C66.3975 58.8975 73.1306 54.375 80.625 54.375C88.1194 54.375 94.8525 58.8975 97.8 65.625ZM51.5981 65.625H20.325C23.2725 58.8975 30.0056 54.375 37.5 54.375C43.5675 54.375 49.1588 57.2925 52.6856 62.1844C52.2506 63.2963 51.9019 64.4494 51.5981 65.625ZM43.4325 43.7419C46.65 37.6894 53.0381 33.75 60 33.75C66.9525 33.75 73.1531 37.4906 76.4194 43.4494C69.7106 44.4056 63.6356 47.6006 59.0625 52.3256C54.8063 47.9138 49.3706 44.9363 43.4325 43.7419ZM84.6206 43.4213C83.3063 43.245 81.9788 43.125 80.625 43.125C80.5669 43.125 80.5088 43.1325 80.4506 43.1325C76.7925 35.115 68.91 30 60 30C51.1781 30 43.1156 35.2669 39.5025 43.2356C38.8369 43.1906 38.1731 43.125 37.5 43.125C36.8119 43.125 36.1331 43.1681 35.4562 43.215C39.2719 33.105 48.99 26.25 60 26.25C71.1375 26.25 80.8669 33.1838 84.6206 43.4213ZM19.1475 14.8781C18.8906 14.5444 18.75 14.1319 18.75 13.7119V13.1606C18.75 12.1069 19.6069 11.25 20.6606 11.25C21.2513 11.25 21.7988 11.5163 22.1644 11.9794L37.9856 32.115C36.9563 33.225 36.0094 34.4194 35.1544 35.6831L19.1475 14.8781ZM6.0225 24.2531C5.76562 23.9194 5.625 23.5069 5.625 23.0869V22.5338C5.625 21.4819 6.48188 20.625 7.53563 20.625C8.12625 20.625 8.67375 20.8913 9.03938 21.3544L27.5063 44.8575C26.0569 45.3731 24.6619 46.0088 23.3175 46.7344L6.0225 24.2531ZM37.5 46.875C44.7825 46.875 51.6487 49.9031 56.6044 55.1813C55.8356 56.205 55.1437 57.2906 54.5081 58.4138C50.2631 53.4975 44.1094 50.625 37.5 50.625C27.96 50.625 19.4456 56.7281 16.2956 65.625H12.3375C15.6075 54.6338 25.8431 46.875 37.5 46.875ZM67.5 114.375H52.5C29.8631 114.375 10.935 98.2425 6.5775 76.875H103.125V73.125H5.97375C5.82563 71.8875 5.71125 70.6388 5.66063 69.375H114.337C114.287 70.6388 114.174 71.8875 114.024 73.125H106.875V76.875H113.423C109.065 98.2425 90.1369 114.375 67.5 114.375Z" fill="black"/>
<path d="M90 39.375H93.75C93.75 37.6912 94.3331 36.9638 95.2125 35.8631C96.2325 34.5919 97.5 33.0075 97.5 30.0075C97.5 27.0056 96.2325 25.4231 95.2144 24.15C94.3331 23.0494 93.75 22.3219 93.75 20.6344C93.75 18.9469 94.3331 18.2194 95.2144 17.1169C96.2325 15.8437 97.5 14.2575 97.5 11.2556C97.5 8.25375 96.2325 6.6675 95.2144 5.39438C94.3331 4.29188 93.75 3.5625 93.75 1.875H90C90 4.87875 91.2675 6.46312 92.2856 7.73625C93.1669 8.83875 93.75 9.56812 93.75 11.2556C93.75 12.9431 93.1669 13.6725 92.2856 14.775C91.2675 16.0481 90 17.6325 90 20.6344C90 23.6363 91.2675 25.2206 92.2856 26.4938C93.1669 27.5963 93.75 28.3237 93.75 30.0094C93.75 31.6931 93.1669 32.4206 92.2875 33.5213C91.2675 34.7925 90 36.375 90 39.375Z" fill="black"/>
</svg>
