<svg width="40" height="40" viewBox="0 0 40 40" fill="none" xmlns="http://www.w3.org/2000/svg">
<path d="M14.834 17.5781C15.524 17.5781 16.084 17.0181 16.084 16.3281V11.4531C16.084 9.27375 17.8571 7.5 20.0365 7.5C22.2159 7.5 23.9896 9.27375 23.9896 11.4531V16.3281C23.9896 17.0181 24.549 17.5781 25.2396 17.5781C25.9296 17.5781 26.4896 17.0181 26.4896 16.3281V11.4531C26.4902 7.895 23.5952 5 20.0365 5C16.479 5 13.584 7.895 13.584 11.4531V16.3281C13.584 17.0181 14.144 17.5781 14.834 17.5781Z" fill="black"/>
<path d="M34.3751 14.7694H27.7401V16.3281C27.7401 17.7069 26.6189 18.8281 25.2401 18.8281C23.8614 18.8281 22.7401 17.7069 22.7401 16.3281V14.7694H17.3345V16.3281C17.3345 17.7069 16.2132 18.8281 14.8345 18.8281C13.4557 18.8281 12.3345 17.7069 12.3345 16.3281V14.7694H5.6251C5.2801 14.7694 5.06698 15.0413 5.14885 15.3763L9.5226 33.1869C9.78635 34.1881 10.8401 35 11.8751 35H28.1251C29.1614 35 30.2139 34.1881 30.4789 33.1869L34.8514 15.3763C34.9332 15.0406 34.7207 14.7694 34.3751 14.7694Z" fill="black"/>
</svg>
